<svg xmlns="http://www.w3.org/2000/svg" width="26" height="26" viewBox="0 0 26 26"><defs><style>.a{fill:#fff;}.b{fill:#2b3340;}</style></defs><g transform="translate(-335 -734.083)"><circle class="a" cx="13" cy="13" r="13" transform="translate(335 734.083)"/><circle class="b" cx="5" cy="5" r="5" transform="translate(343 742.083)"/><path class="b" d="M348,740.917a1,1,0,0,1-1-1V738.25a1,1,0,0,1,2,0v1.667A1,1,0,0,1,348,740.917Z"/><path class="b" d="M348,756.917a1,1,0,0,1-1-1V754.25a1,1,0,0,1,2,0v1.667A1,1,0,0,1,348,756.917Z"/><path class="b" d="M356.833,748.083h-1.666a1,1,0,0,1,0-2h1.666a1,1,0,0,1,0,2Z"/><path class="b" d="M340.833,748.083h-1.666a1,1,0,0,1,0-2h1.666a1,1,0,0,1,0,2Z"/><path class="b" d="M353.067,743.016a1,1,0,0,1-.707-1.707l1.179-1.179a1,1,0,0,1,1.414,1.414l-1.179,1.179A1,1,0,0,1,353.067,743.016Z"/><path class="b" d="M341.754,754.329a1,1,0,0,1-.707-1.707l1.179-1.178a1,1,0,0,1,1.414,1.414l-1.179,1.178A1,1,0,0,1,341.754,754.329Z"/><path class="b" d="M354.246,754.329a1,1,0,0,1-.707-.293l-1.179-1.178a1,1,0,1,1,1.414-1.414l1.179,1.178a1,1,0,0,1-.707,1.707Z"/><path class="b" d="M342.933,743.016a1,1,0,0,1-.707-.293l-1.179-1.179a1,1,0,1,1,1.414-1.414l1.179,1.179a1,1,0,0,1-.707,1.707Z"/></g></svg>