<svg xmlns="http://www.w3.org/2000/svg" width="994.524" height="1067.436" viewBox="0 0 994.524 1067.436"><defs><style>.a{fill:#1f252d;}.b{fill:#464f5b;}.c{fill:#dbdbdb;}.d{fill:#333b44;}.e{fill:#a6a6a6;}.f{fill:#0eaa63;}.g{fill:#e56c5c;}.h{fill:#808997;}.i{fill:#2b3340;}.j{fill:none;stroke:#263238;stroke-linecap:round;stroke-linejoin:round;}.k{fill:#e8e9ea;}.l,.m{opacity:0.1;}.n{fill:#424f54;}.o{fill:#455a64;}.p{fill:#767f89;}.q{fill:#f7a9a0;}.r{fill:#263238;}.s{fill:#37474f;}</style></defs><g transform="translate(-465.248 -115)"><g transform="translate(504.583 115)"><rect class="a" width="2.263" height="207.385" transform="translate(70.887)"/><g transform="translate(0 200.163)"><path class="b" d="M626.66,259.111l-5.792,12.733H488.409l-5.775-12.733,56.393-39.033h31.24Z" transform="translate(-482.628 -182.471)"/><path class="a" d="M544.894,203.459l-3.914,37.607H509.74l-3.914-37.607Z" transform="translate(-453.341 -203.459)"/><path class="c" d="M626.657,237.331l-5.792,12.733H488.407l-5.775-12.733Z" transform="translate(-482.632 -160.685)"/></g></g><g transform="translate(659.208 115)"><rect class="a" width="2.263" height="166.308" transform="translate(70.888)"/><g transform="translate(0 159.086)"><path class="b" d="M694.993,240.958,689.2,253.691H556.743l-5.775-12.733,56.392-39.033H638.6Z" transform="translate(-550.962 -164.318)"/><path class="a" d="M613.228,185.305l-3.914,37.607H578.074l-3.914-37.607Z" transform="translate(-521.675 -185.305)"/><path class="c" d="M694.991,219.177,689.2,231.91H556.74l-5.775-12.733Z" transform="translate(-550.965 -142.532)"/></g></g><g transform="translate(653.301 466.535)"><path class="d" d="M862.376,286.849l.455,175.592a17.769,17.769,0,0,1-17.713,17.824l-278.5.724a17.769,17.769,0,0,1-17.8-17.733l-.457-175.592a16.537,16.537,0,0,1,16.493-16.579l280.948-.729A16.537,16.537,0,0,1,862.376,286.849Z" transform="translate(-548.355 -270.355)"/><g transform="translate(21.156 30.201)"><path class="e" d="M685.546,353.46a16.346,16.346,0,1,1-16.387-16.306A16.344,16.344,0,0,1,685.546,353.46Z" transform="translate(-437.552 -216.203)"/><path class="f" d="M694.441,353.434a16.346,16.346,0,1,1-16.389-16.3A16.344,16.344,0,0,1,694.441,353.434Z" transform="translate(-426.319 -216.232)"/><rect class="g" width="58.945" height="40.737" rx="4.202" transform="matrix(1, -0.003, 0.003, 1, 5.269, 0.653)"/><path class="h" d="M692.261,306.045l-26.669.07a11.175,11.175,0,0,1-11.2-11.142h0a11.172,11.172,0,0,1,11.144-11.2l26.669-.07a11.174,11.174,0,0,1,11.2,11.144h0A11.172,11.172,0,0,1,692.261,306.045Z" transform="translate(-435.61 -283.702)"/><g transform="translate(0 76.143)"><path class="h" d="M561.009,319.335l-2.412,1.423a.622.622,0,0,1-.294.1.588.588,0,0,1-.514-.292.563.563,0,0,1,.217-.806l3.292-2.012a.621.621,0,0,1,.808.217.726.726,0,0,1,.075.441l.039,15.706a.576.576,0,0,1-.582.588.6.6,0,0,1-.591-.586Z" transform="translate(-557.704 -316.941)"/><path class="h" d="M561.658,333.695l7.97-7.227a4.443,4.443,0,0,0,1.457-3.276,4.409,4.409,0,0,0-4.408-4.36,4.447,4.447,0,0,0-2.978,1.129l-.83.76a.587.587,0,0,1-.808-.853l.828-.783a5.733,5.733,0,0,1,3.783-1.453,5.62,5.62,0,0,1,5.585,5.555,5.634,5.634,0,0,1-1.822,4.159l-6.822,6.2,8.085-.02a.6.6,0,0,1,0,1.2l-9.526.025h-.1a.556.556,0,0,1-.441-.172A.641.641,0,0,1,561.658,333.695Z" transform="translate(-552.945 -317)"/><path class="h" d="M577.974,318.683l-4.41,4.555a5.8,5.8,0,0,1-1.167,11.484,5.69,5.69,0,0,1-4.082-1.7.6.6,0,1,1,.851-.855,4.583,4.583,0,0,0,7.811-3.272,4.586,4.586,0,0,0-4.582-4.553.638.638,0,0,1-.489-.244h-.022a.616.616,0,0,1,0-.88l4.238-4.383-6.546.016a.611.611,0,1,1,0-1.222l7.988-.018a.6.6,0,0,1,.613.609.489.489,0,0,1-.072.269A.534.534,0,0,1,577.974,318.683Z" transform="translate(-544.54 -317.027)"/><path class="h" d="M584.376,331.135l-9.259.025h-.075a.513.513,0,0,1-.364-.122.562.562,0,0,1-.077-.83l9.861-12.337.025-.025a.564.564,0,0,1,.83-.075.715.715,0,0,1,.195.292c0,.047.025.072.027.1v.072l.029,11.726,1.149,0a.587.587,0,1,1,0,1.172l-1.15,0,.009,2.933a.6.6,0,0,1-1.2,0Zm0-1.172-.025-10.015-8.06,10.035Z" transform="translate(-536.555 -317.009)"/><path class="h" d="M588.415,333a.591.591,0,0,1,0-.855.617.617,0,0,1,.878,0,4.583,4.583,0,0,0,3.229,1.31,4.589,4.589,0,0,0,4.557-4.578,4.56,4.56,0,0,0-7.8-3.206.588.588,0,0,1-.853,0,.377.377,0,0,1-.149-.195v-.025a.087.087,0,0,1-.025-.072.517.517,0,0,1-.023-.2c0-.025.023-.072.023-.12l.812-6.893a.521.521,0,0,1,.242-.441.563.563,0,0,1,.392-.145l7.965-.023a.6.6,0,0,1,.611.609.592.592,0,0,1-.609.613l-7.451.018-.6,5.084a5.756,5.756,0,0,1,2.905-.79,5.752,5.752,0,0,1,5.779,5.775,5.717,5.717,0,0,1-1.672,4.107,5.937,5.937,0,0,1-4.1,1.7A5.8,5.8,0,0,1,588.415,333Z" transform="translate(-519.164 -317.093)"/><path class="h" d="M596.409,321.282a6.933,6.933,0,0,1,5.974-3.727.59.59,0,0,1,.613.557.643.643,0,0,1-.584.64,5.784,5.784,0,0,0-4.976,3.114,11.192,11.192,0,0,0-1.213,3.424,5.62,5.62,0,1,1-1.407,3.91,8.657,8.657,0,0,1-.05-1.122A14.094,14.094,0,0,1,596.409,321.282Zm-.4,7.818a1.311,1.311,0,0,0,.05.317.4.4,0,0,1-.023.172,4.542,4.542,0,1,0-.027-.588Z" transform="translate(-510.904 -317.098)"/><path class="h" d="M603.968,333.765l6.286-15.016-8.257.02a.586.586,0,0,1,0-1.172l9.038-.023a.636.636,0,0,1,.367.023.668.668,0,0,1,.319.364.589.589,0,0,1,.05.2.49.49,0,0,1-.1.319l-6.578,15.749a.609.609,0,0,1-.536.367.448.448,0,0,1-.244-.047A.648.648,0,0,1,603.968,333.765Z" transform="translate(-502.512 -317.091)"/><path class="h" d="M613.065,317.512a3.549,3.549,0,0,1,2.118,6.417,5.534,5.534,0,1,1-4.225.011,3.6,3.6,0,0,1-1.426-2.878A3.529,3.529,0,0,1,613.065,317.512Zm.041,15.925a4.373,4.373,0,1,0-4.383-4.36A4.352,4.352,0,0,0,613.106,333.437Zm-.025-9.968a2.432,2.432,0,0,0,2.387-2.423,2.382,2.382,0,0,0-4.763.014A2.412,2.412,0,0,0,613.081,323.47Z" transform="translate(-494.759 -317.15)"/><path class="h" d="M626.56,317.477a5.62,5.62,0,0,1,5.632,4.969c.025.047.025.072.05.122.025.464.052.95.052,1.464a14.167,14.167,0,0,1-1.618,6.82,7.075,7.075,0,0,1-5.976,3.729h-.025a.579.579,0,0,1-.611-.561.619.619,0,0,1,.584-.636,5.8,5.8,0,0,0,4.976-3.116,10.8,10.8,0,0,0,1.213-3.421,5.651,5.651,0,1,1-4.277-9.37Zm4.487,5.6a4.459,4.459,0,1,0-4.46,4.458A4.431,4.431,0,0,0,631.047,323.082Z" transform="translate(-477.861 -317.194)"/><path class="h" d="M627.851,326.025a10.894,10.894,0,0,1,1.62-5.99,4.845,4.845,0,0,1,8.551-.023,11.131,11.131,0,0,1,1.677,5.981,10.963,10.963,0,0,1-1.647,5.965,4.823,4.823,0,0,1-8.549.023A10.737,10.737,0,0,1,627.851,326.025Zm1.2,0a9.683,9.683,0,0,0,1.455,5.3,3.637,3.637,0,0,0,6.546-.016,10.314,10.314,0,0,0-.027-10.6,3.635,3.635,0,0,0-6.546.016A9.688,9.688,0,0,0,629.048,326.02Z" transform="translate(-469.124 -317.219)"/><path class="h" d="M638.415,319.134,636,320.557a.6.6,0,0,1-.294.1.591.591,0,0,1-.514-.29.565.565,0,0,1,.217-.808l3.292-2.012a.621.621,0,0,1,.808.217.712.712,0,0,1,.072.441l.041,15.706a.575.575,0,0,1-.584.588.6.6,0,0,1-.588-.584Z" transform="translate(-459.957 -317.195)"/><path class="h" d="M639.065,333.495l7.969-7.23a4.435,4.435,0,0,0,1.455-3.274,4.409,4.409,0,0,0-4.408-4.363,4.443,4.443,0,0,0-2.978,1.131l-.828.76a.588.588,0,0,1-.808-.855l.828-.783a5.718,5.718,0,0,1,3.783-1.45,5.616,5.616,0,0,1,5.585,5.555,5.632,5.632,0,0,1-1.822,4.157l-6.825,6.2,8.087-.02a.6.6,0,0,1,0,1.2l-9.526.025h-.1a.555.555,0,0,1-.441-.17A.639.639,0,0,1,639.065,333.495Z" transform="translate(-455.198 -317.253)"/><path class="h" d="M661.853,318.467l-4.41,4.553a5.733,5.733,0,0,1,4.632,5.657,5.709,5.709,0,0,1-1.7,4.107,5.8,5.8,0,0,1-4.1,1.72,5.682,5.682,0,0,1-4.084-1.7.6.6,0,1,1,.851-.855,4.583,4.583,0,0,0,7.811-3.27,4.585,4.585,0,0,0-4.582-4.555.638.638,0,0,1-.489-.244h-.025a.617.617,0,0,1,0-.878L660,318.616l-6.549.018a.611.611,0,0,1,0-1.222l7.988-.02a.6.6,0,0,1,.613.609.51.51,0,0,1-.072.269A.55.55,0,0,1,661.853,318.467Z" transform="translate(-438.619 -317.302)"/><path class="h" d="M668.252,330.917l-9.257.025h-.075a.522.522,0,0,1-.367-.122.564.564,0,0,1-.075-.83l9.861-12.337.025-.025a.565.565,0,0,1,.83-.075.783.783,0,0,1,.2.292c0,.05.023.072.025.1v.075l.029,11.726,1.147,0a.587.587,0,1,1,0,1.172l-1.149,0,.007,2.933a.6.6,0,0,1-1.2,0Zm0-1.172-.027-10.015-8.06,10.035Z" transform="translate(-430.633 -317.284)"/><path class="h" d="M665.822,332.794a.589.589,0,0,1,0-.855.619.619,0,0,1,.878,0,4.583,4.583,0,0,0,3.229,1.31,4.585,4.585,0,0,0,4.555-4.58,4.56,4.56,0,0,0-7.8-3.2.586.586,0,0,1-.853,0,.381.381,0,0,1-.15-.192v-.025a.092.092,0,0,1-.025-.075.463.463,0,0,1-.025-.195,1.13,1.13,0,0,0,.025-.122l.812-6.89a.515.515,0,0,1,.242-.441.561.561,0,0,1,.391-.147l7.963-.02a.6.6,0,0,1,.613.609.593.593,0,0,1-.609.613l-7.451.018-.6,5.082a5.772,5.772,0,0,1,2.905-.79,5.752,5.752,0,0,1,5.779,5.775,5.716,5.716,0,0,1-1.674,4.107,5.923,5.923,0,0,1-4.1,1.7A5.786,5.786,0,0,1,665.822,332.794Z" transform="translate(-421.417 -317.346)"/><path class="h" d="M673.815,321.081a6.937,6.937,0,0,1,5.974-3.727.592.592,0,0,1,.613.559.639.639,0,0,1-.586.636,5.79,5.79,0,0,0-4.974,3.116,11.168,11.168,0,0,0-1.213,3.424,5.621,5.621,0,1,1-1.407,3.91,8.245,8.245,0,0,1-.05-1.12A14.105,14.105,0,0,1,673.815,321.081Zm-.4,7.818a1.177,1.177,0,0,0,.05.317.359.359,0,0,1-.025.172,4.56,4.56,0,1,0-.025-.586Z" transform="translate(-413.156 -317.352)"/></g><rect class="h" width="149.122" height="7.329" transform="matrix(1, -0.003, 0.003, 1, 5.588, 123.227)"/><rect class="h" width="105.573" height="7.329" transform="matrix(1, -0.003, 0.003, 1, 5.63, 139.502)"/><rect class="h" width="74.374" height="7.329" transform="translate(134.123 0.318) rotate(-0.149)"/></g></g><g transform="translate(1331.538 252.72)"><rect class="b" width="128.234" height="128.234"/><g transform="translate(38.264 20.589)"><path class="i" d="M883.925,158.886a4.326,4.326,0,0,1,4.358,4.358v2.231A36.866,36.866,0,0,1,904,171.051a5.427,5.427,0,0,1,3.039,4.865,5.58,5.58,0,0,1-5.675,5.576,5.863,5.863,0,0,1-3.041-.912,36.785,36.785,0,0,0-10.44-4.46v19.462c15.407,3.854,22,10.035,22,20.883,0,11.151-8.716,18.55-21.592,19.768v6.082a4.326,4.326,0,0,1-4.358,4.358,4.414,4.414,0,0,1-4.462-4.358v-6.286a43.847,43.847,0,0,1-20.781-7.906,5.577,5.577,0,0,1-2.738-4.865,5.578,5.578,0,0,1,8.922-4.462,35.893,35.893,0,0,0,15,6.793V205.617c-14.8-3.851-21.693-9.427-21.693-20.881,0-10.848,8.614-18.349,21.286-19.363v-2.129A4.413,4.413,0,0,1,883.925,158.886Zm-4.055,34.566V175.511c-6.49.609-9.732,4.055-9.732,8.515C870.137,188.282,872.063,190.918,879.87,193.452Zm8.008,14.093v18.449c6.487-.711,10.036-3.953,10.036-8.818C897.913,212.713,895.682,209.977,887.878,207.545Z" transform="translate(-855.943 -158.886)"/></g></g><line class="j" x2="943.801" transform="translate(490.599 1069.43)"/><g transform="translate(465.248 1057.916)"><ellipse class="a" cx="497.252" cy="62.26" rx="497.252" ry="62.26"/></g><g transform="translate(925.947 277.52)"><path class="b" d="M1122.076,225.671V954.329c0,21.429-17.1,38.848-38.167,38.848H706.99c-21.042,0-38.144-17.419-38.144-38.848V225.671c0-21.474,17.1-38.848,38.144-38.848h376.919C1104.974,186.823,1122.076,204.2,1122.076,225.671Z" transform="translate(-668.846 -186.823)"/><path class="i" d="M1084.935,248.509V916.6c0,20.42-15.292,36.954-34.15,36.954H713.566c-18.9,0-34.188-16.534-34.188-36.954V248.509c0-41.619,15.292-50.806,34.188-50.806h67.54c3.924,0,7.128,4.444,7.128,9.97v2.38c0,12.973,7.085,13.013,15.813,13.013H960.265c8.768,0,15.815-.041,15.815-13.013v-2.38c0-5.526,3.163-9.97,7.125-9.97h67.58C1069.643,197.7,1084.935,210.4,1084.935,248.509Z" transform="translate(-655.546 -173.084)"/><path class="c" d="M803.656,204.7H761.046a2.633,2.633,0,0,1-2.632-2.632h0a2.631,2.631,0,0,1,2.632-2.632h42.611a2.631,2.631,0,0,1,2.631,2.632h0A2.632,2.632,0,0,1,803.656,204.7Z" transform="translate(-555.74 -170.894)"/><g transform="translate(45.55 73.539)"><path class="g" d="M848.631,411.523c-3.652,6.7-12.411,12.6-12.411,12.6s-8.759-5.9-12.389-12.6c-4.123-7.565-1.851-15.317,4.075-15.317,6.6,0,8.313,8.243,8.313,8.243s1.733-8.243,8.313-8.243C850.459,396.206,852.754,403.958,848.631,411.523Z" transform="translate(-521.33 4.044)"/><g transform="translate(32.73)"><g transform="translate(0 8.119)"><rect class="h" width="33.925" height="5.582"/><rect class="h" width="33.925" height="5.581" transform="translate(0 11.163)"/><rect class="h" width="33.925" height="5.581" transform="translate(0 22.326)"/></g><g transform="translate(183.801 7.772)"><rect class="h" width="4.673" height="18.903" transform="translate(10.43 13.187) rotate(-37.147)"/><path class="h" d="M802.9,226.737a10.166,10.166,0,1,1-14.253-1.88A10.166,10.166,0,0,1,802.9,226.737Z" transform="translate(-784.668 -222.757)"/><path class="i" d="M797.378,226.944a6.08,6.08,0,1,1-8.524-1.125A6.081,6.081,0,0,1,797.378,226.944Z" transform="translate(-782.387 -220.477)"/></g><path class="h" d="M830.448,238.223c-3.652,6.7-12.411,12.6-12.411,12.6s-8.759-5.9-12.389-12.6c-4.123-7.562-1.851-15.315,4.075-15.315,6.6,0,8.313,8.243,8.313,8.243s1.733-8.243,8.314-8.243C832.276,222.908,834.571,230.66,830.448,238.223Z" transform="translate(-577.021 -214.795)"/><g transform="translate(265.058 7.914)"><path class="h" d="M848.263,245.332H827.776l-5.152-20.757h-2.046V222.82H824l1.021,4.1,28.319.025Zm-19.114-1.758h17.776l4.107-14.871-25.581-.023Z" transform="translate(-820.578 -222.82)"/><path class="h" d="M840.184,237.1l-1.416-3.364H827.148l-1.139,3.309-1.66-.572,1.546-4.494h14.04l1.869,4.439Z" transform="translate(-815.816 -211.251)"/><rect class="h" width="25.579" height="1.756" transform="translate(4.761 8.173)"/><rect class="h" width="1.757" height="23.138" transform="translate(6.132 14.237) rotate(-89.745)"/><rect class="h" width="20.963" height="1.757" transform="translate(7.092 16.995)"/><rect class="h" width="1.756" height="16.55" transform="translate(16.421 5.083)"/><rect class="h" width="16.603" height="1.757" transform="translate(19.616 21.564) rotate(-85.451)"/><rect class="h" width="16.828" height="1.758" transform="translate(22.905 21.474) rotate(-79.581)"/><rect class="h" width="1.757" height="16.603" transform="translate(11.981 5.153) rotate(-4.582)"/><rect class="h" width="1.758" height="16.828" transform="translate(6.993 5.242) rotate(-10.421)"/><path class="h" d="M833.268,238.459a2.8,2.8,0,1,1,2.8-2.8A2.8,2.8,0,0,1,833.268,238.459Zm0-3.844a1.044,1.044,0,1,0,1.045,1.043A1.045,1.045,0,0,0,833.268,234.614Z" transform="translate(-808.09 -210.147)"/><path class="h" d="M826.3,238.459a2.8,2.8,0,1,1,2.8-2.8A2.8,2.8,0,0,1,826.3,238.459Zm0-3.844a1.044,1.044,0,1,0,1.043,1.043A1.045,1.045,0,0,0,826.3,234.614Z" transform="translate(-816.884 -210.147)"/></g><g transform="translate(289.17)"><circle class="g" cx="7.496" cy="7.496" r="7.496"/><g transform="translate(5.245 2.434)"><path class="k" d="M836.847,221.172v8.286a.781.781,0,0,1-.785.772.76.76,0,0,1-.772-.772v-6.911l-.563.324a.706.706,0,0,1-.394.111.787.787,0,0,1-.407-1.446l1.726-1.025c.016-.014.043-.014.059-.027s.041-.029.07-.043.054-.014.084-.014a.076.076,0,0,1,.057-.016.242.242,0,0,1,.1-.014h.156a.081.081,0,0,0,.054.014.147.147,0,0,1,.084.029.1.1,0,0,1,.059.014c.041.029.054.043.081.043a.245.245,0,0,0,.057.041c.014.014.043.029.059.043s.041.043.054.057a.212.212,0,0,1,.043.057l.054.054.014.029c0,.014.014.027.014.043.018.027.032.041.032.068s.014.057.027.07a.709.709,0,0,0,.014.072.119.119,0,0,0,.027.1Z" transform="translate(-833.551 -220.398)"/></g></g></g><rect class="h" width="186.487" height="5.278" transform="translate(32.73 405.772)"/><rect class="h" width="160.385" height="5.278" transform="translate(32.73 415.631)"/><g transform="translate(0 226.728)"><path class="h" d="M699.351,335.98l-7.489-7.017,7.489-7.016,1.162,1.238-6.167,5.778,6.167,5.78Z" transform="translate(-685.331 -316.458)"/><path class="h" d="M701.48,344.532a12.505,12.505,0,1,1,12.506-12.506A12.519,12.519,0,0,1,701.48,344.532Zm0-22.748a10.243,10.243,0,1,0,10.244,10.241A10.252,10.252,0,0,0,701.48,321.784Z" transform="translate(-688.976 -319.521)"/><g transform="translate(337.119)"><path class="h" d="M843.466,335.98l-1.162-1.237,6.165-5.78-6.165-5.778,1.162-1.238,7.487,7.016Z" transform="translate(-832.475 -316.458)"/><path class="h" d="M850.464,344.532a12.505,12.505,0,1,1,12.509-12.506A12.519,12.519,0,0,1,850.464,344.532Zm0-22.748a10.243,10.243,0,1,0,10.246,10.241A10.252,10.252,0,0,0,850.464,321.784Z" transform="translate(-837.96 -319.521)"/></g></g><g transform="translate(37.191 540.871)"><path class="h" d="M712.721,458.351a.682.682,0,0,1,.672.674v1.125a9.169,9.169,0,0,1,5,1.969.778.778,0,0,1,.394.645.719.719,0,0,1-.731.7.686.686,0,0,1-.507-.2,8.014,8.014,0,0,0-4.213-1.826v7.87c4.272.9,6.071,2.5,6.071,5.256,0,2.978-2.5,5.087-6.017,5.2v2.193a.674.674,0,1,1-1.349,0v-2.22a10.577,10.577,0,0,1-6.322-2.724.742.742,0,0,1-.31-.593.732.732,0,0,1,.7-.7.7.7,0,0,1,.5.2,9.075,9.075,0,0,0,5.48,2.557v-8.01c-4.216-.928-5.958-2.473-5.958-5.284,0-2.84,2.473-5,5.9-5.087v-1.068A.682.682,0,0,1,712.721,458.351Zm-.62,10.678v-7.671c-2.727.057-4.526,1.686-4.526,3.709C707.575,466.979,708.476,468.158,712.1,469.029Zm1.238,1.715V478.5c2.808-.059,4.636-1.686,4.636-3.824C717.975,472.74,716.991,471.561,713.338,470.744Z" transform="translate(-705.412 -458.351)"/><path class="h" d="M713.294,477.585l9.189-8.291a5.1,5.1,0,0,0,1.686-3.765,5.078,5.078,0,0,0-5.057-5.032,5.122,5.122,0,0,0-3.43,1.294l-.955.869a.675.675,0,1,1-.928-.982l.955-.9a6.6,6.6,0,0,1,4.358-1.656,6.462,6.462,0,0,1,6.406,6.408,6.464,6.464,0,0,1-2.107,4.779l-7.87,7.11h9.3a.69.69,0,0,1,.674.7.682.682,0,0,1-.674.672H713.772a.634.634,0,0,1-.507-.2A.741.741,0,0,1,713.294,477.585Z" transform="translate(-695.728 -457.379)"/><path class="h" d="M720.639,468.957a12.516,12.516,0,0,1,1.883-6.886,5.572,5.572,0,0,1,9.834,0,12.759,12.759,0,0,1,1.912,6.886,12.59,12.59,0,0,1-1.912,6.859,5.549,5.549,0,0,1-9.834,0A12.352,12.352,0,0,1,720.639,468.957Zm1.376,0a11.154,11.154,0,0,0,1.656,6.1,4.185,4.185,0,0,0,7.535,0,11.877,11.877,0,0,0,0-12.2,4.187,4.187,0,0,0-7.535,0A11.167,11.167,0,0,0,722.015,468.957Z" transform="translate(-686.183 -457.379)"/><path class="h" d="M730.824,466.573a1.405,1.405,0,1,1-1.405,1.405A1.392,1.392,0,0,1,730.824,466.573Z" transform="translate(-675.096 -447.968)"/><path class="h" d="M731.816,468.957a12.535,12.535,0,0,1,1.883-6.886,5.574,5.574,0,0,1,9.836,0,12.758,12.758,0,0,1,1.912,6.886,12.589,12.589,0,0,1-1.912,6.859,5.55,5.55,0,0,1-9.836,0A12.371,12.371,0,0,1,731.816,468.957Zm1.378,0a11.155,11.155,0,0,0,1.656,6.1,4.184,4.184,0,0,0,7.533,0,11.877,11.877,0,0,0,0-12.2,4.185,4.185,0,0,0-7.533,0A11.168,11.168,0,0,0,733.194,468.957Z" transform="translate(-672.069 -457.379)"/><path class="h" d="M740.635,468.957a12.536,12.536,0,0,1,1.883-6.886,5.572,5.572,0,0,1,9.834,0,12.758,12.758,0,0,1,1.912,6.886,12.589,12.589,0,0,1-1.912,6.859,5.549,5.549,0,0,1-9.834,0A12.372,12.372,0,0,1,740.635,468.957Zm1.376,0a11.135,11.135,0,0,0,1.659,6.1,4.184,4.184,0,0,0,7.533,0,11.877,11.877,0,0,0,0-12.2,4.185,4.185,0,0,0-7.533,0A11.149,11.149,0,0,0,742.011,468.957Z" transform="translate(-660.933 -457.379)"/></g><g transform="translate(34.679 67.346)"><path class="h" d="M714.426,250.93l-4.2,5.829a.432.432,0,0,1-.373.208h-.038a.421.421,0,0,1-.394-.208l-4.2-5.811v10.78a.457.457,0,0,1-.45.45.463.463,0,0,1-.468-.45V249.579a.421.421,0,0,1,.188-.355c0-.02.02-.02.036-.038a.478.478,0,0,1,.64.111l4.666,6.469,4.65-6.469a.472.472,0,0,1,.638-.111,1.262,1.262,0,0,1,.131.149.636.636,0,0,1,.075.244v12.149a.457.457,0,0,1-.448.45.446.446,0,0,1-.453-.45Z" transform="translate(-704.302 -249.054)"/><path class="h" d="M715.358,250.825a4.6,4.6,0,1,1-4.349,4.594A4.493,4.493,0,0,1,715.358,250.825Zm0,8.286a3.712,3.712,0,1,0-3.451-3.693A3.593,3.593,0,0,0,715.358,259.111Z" transform="translate(-695.832 -246.888)"/><path class="h" d="M724.068,260.428a4.371,4.371,0,0,1-3.525,1.781,4.6,4.6,0,0,1,0-9.187,4.387,4.387,0,0,1,3.525,1.8v-5.286a.459.459,0,0,1,.919,0v12.224a.459.459,0,0,1-.919,0Zm0-2.645v-.3a3.659,3.659,0,1,0,0,.3Z" transform="translate(-689.402 -249.085)"/><path class="h" d="M721.425,255.437a4.446,4.446,0,0,1,8.886-.337v.075a.424.424,0,0,1-.45.412h-7.537a3.615,3.615,0,0,0,3.562,3.525,3.449,3.449,0,0,0,2.964-1.67.437.437,0,0,1,.6-.147.474.474,0,0,1,.149.636,4.377,4.377,0,0,1-3.713,2.082A4.522,4.522,0,0,1,721.425,255.437Zm.957-.731h6.956a3.548,3.548,0,0,0-3.453-2.98A3.586,3.586,0,0,0,722.382,254.706Z" transform="translate(-682.679 -246.888)"/><path class="h" d="M726.583,251.283a.449.449,0,0,1,.468-.45.439.439,0,0,1,.43.45v2.025a1.363,1.363,0,0,1,.134-.224,4.432,4.432,0,0,1,3.675-2.251.444.444,0,0,1,.448.45.455.455,0,0,1-.448.45,3.316,3.316,0,0,0-2.663,1.5,8.342,8.342,0,0,0-1.106,2.136.281.281,0,0,0-.039.149v4.032a.439.439,0,0,1-.43.45.449.449,0,0,1-.468-.45Z" transform="translate(-676.166 -246.878)"/><path class="h" d="M736.78,254.564a2.829,2.829,0,0,0-2.833-2.831,2.882,2.882,0,0,0-2.849,2.831v5.062a.46.46,0,0,1-.43.376h-.113a.5.5,0,0,1-.3-.244.078.078,0,0,1-.016-.057.062.062,0,0,0-.02-.036v-8.381a.44.44,0,1,1,.88,0v.88a3.728,3.728,0,0,1,6.583,2.4v4.987a.45.45,0,0,1-.9,0Z" transform="translate(-671.576 -246.878)"/><path class="h" d="M745.537,256.1h-6.75v5.661a.459.459,0,0,1-.919,0V249.535a.459.459,0,0,1,.919,0V255.2h6.75v-5.661a.459.459,0,0,1,.919,0v12.224a.459.459,0,0,1-.919,0Z" transform="translate(-661.915 -249.085)"/><path class="h" d="M751.908,251.275v8.286a.45.45,0,1,1-.9,0v-1.369a4.288,4.288,0,0,1-3.449,1.819,4.6,4.6,0,0,1,0-9.187,4.269,4.269,0,0,1,3.449,1.8v-1.349a.45.45,0,1,1,.9,0Zm-.9,4.143a3.458,3.458,0,1,0-3.449,3.693A3.587,3.587,0,0,0,751.008,255.418Z" transform="translate(-655.172 -246.888)"/><path class="h" d="M755.254,254.564a2.83,2.83,0,0,0-2.833-2.831,2.88,2.88,0,0,0-2.849,2.831v5.062a.432.432,0,0,1-.095.206.4.4,0,0,1-.335.17h-.113a.485.485,0,0,1-.3-.244.071.071,0,0,1-.018-.057.062.062,0,0,0-.02-.036v-8.381a.445.445,0,0,1,.453-.45.44.44,0,0,1,.43.45v.88a3.726,3.726,0,0,1,6.58,2.4v4.987a.449.449,0,1,1-.9,0Z" transform="translate(-648.249 -246.878)"/><path class="h" d="M761.3,260.428a4.374,4.374,0,0,1-3.525,1.781,4.6,4.6,0,0,1,0-9.187,4.39,4.39,0,0,1,3.525,1.8v-5.286a.459.459,0,0,1,.919,0v12.224a.459.459,0,0,1-.919,0Zm0-2.645v-.3a3.659,3.659,0,1,0,0,.3Z" transform="translate(-642.394 -249.085)"/><path class="h" d="M759.064,257.822v-8.286a.456.456,0,0,1,.453-.45.461.461,0,0,1,.469.45v5.286a4.386,4.386,0,0,1,3.523-1.8,4.6,4.6,0,0,1,0,9.187,4.37,4.37,0,0,1-3.523-1.781v1.331a.463.463,0,0,1-.469.45.458.458,0,0,1-.453-.45Zm.921-.188a3.619,3.619,0,1,0,0-.149Z" transform="translate(-635.149 -249.085)"/><path class="h" d="M772.79,251.275v8.286a.45.45,0,0,1-.9,0v-1.369a4.291,4.291,0,0,1-3.448,1.819,4.6,4.6,0,0,1,0-9.187,4.272,4.272,0,0,1,3.448,1.8v-1.349a.45.45,0,0,1,.9,0Zm-.9,4.143a3.458,3.458,0,1,0-3.448,3.693A3.587,3.587,0,0,0,771.89,255.418Z" transform="translate(-628.802 -246.888)"/><path class="h" d="M778.312,259.279a4.316,4.316,0,0,1-4.331,4.313,4.758,4.758,0,0,1-1.912-.43.486.486,0,0,1-.188-.6.418.418,0,0,1,.6-.208,3.3,3.3,0,0,0,1.5.339,3.407,3.407,0,0,0,3.433-3.415v-1.122a4.168,4.168,0,0,1-3.433,1.8,4.573,4.573,0,0,1,0-9.13,4.215,4.215,0,0,1,3.433,1.8v-1.349a.46.46,0,0,1,.468-.45.452.452,0,0,1,.43.45Zm-.9-3.9a3.433,3.433,0,1,0-3.433,3.7A3.534,3.534,0,0,0,777.414,255.38Z" transform="translate(-621.755 -246.888)"/></g><g transform="translate(34.098 436.419)"><path class="h" d="M710.869,412.19a6.982,6.982,0,0,1,4.238,1.441.463.463,0,0,1,.075.656.437.437,0,0,1-.638.095,5.962,5.962,0,0,0-3.675-1.274,5.739,5.739,0,1,0,0,11.472,5.58,5.58,0,0,0,3.639-1.274.455.455,0,0,1,.656.111.444.444,0,0,1-.057.656,6.941,6.941,0,0,1-4.238,1.426,6.657,6.657,0,1,1,0-13.31Z" transform="translate(-704.045 -412.19)"/><path class="h" d="M714.67,414.013a4.6,4.6,0,1,1-4.349,4.591A4.493,4.493,0,0,1,714.67,414.013Zm0,8.286a3.714,3.714,0,1,0-3.448-3.7A3.6,3.6,0,0,0,714.67,422.3Z" transform="translate(-696.12 -409.888)"/><path class="h" d="M715.744,412.724a.459.459,0,0,1,.919,0v12.221a.459.459,0,0,1-.919,0Z" transform="translate(-689.271 -412.086)"/><path class="h" d="M721.906,414.013a4.6,4.6,0,1,1-4.347,4.591A4.491,4.491,0,0,1,721.906,414.013Zm0,8.286a3.714,3.714,0,1,0-3.448-3.7A3.6,3.6,0,0,0,721.906,422.3Z" transform="translate(-686.98 -409.888)"/><path class="h" d="M722.758,414.471a.447.447,0,0,1,.469-.45.439.439,0,0,1,.43.45v2.023a1.289,1.289,0,0,1,.133-.224,4.427,4.427,0,0,1,3.675-2.249.442.442,0,0,1,.448.45.455.455,0,0,1-.448.448,3.318,3.318,0,0,0-2.663,1.5,8.3,8.3,0,0,0-1.107,2.136.285.285,0,0,0-.038.152v4.03a.44.44,0,0,1-.43.45.449.449,0,0,1-.469-.45Z" transform="translate(-680.414 -409.878)"/></g><g transform="translate(56.578 591.761)"><rect class="f" width="248.974" height="52.439"/><g transform="translate(31.35 16.827)"><path class="k" d="M739.053,503.546h-6.829l-1.378,3.654a1.572,1.572,0,0,1-1.462.984,1.7,1.7,0,0,1-.534-.084,1.6,1.6,0,0,1-.925-2.025l6.211-16.552a1.566,1.566,0,0,1,1.489-.984,1.544,1.544,0,0,1,1.489.984l6.214,16.552a1.6,1.6,0,0,1-.93,2.025,1.566,1.566,0,0,1-.534.084,1.509,1.509,0,0,1-1.432-.984Zm-1.152-3.091-2.276-6.042-2.279,6.042Z" transform="translate(-727.834 -487.948)"/><path class="k" d="M736.382,506.652V490.07a1.523,1.523,0,0,1,1.543-1.546h3.317a9.838,9.838,0,0,1,0,19.675h-3.317A1.542,1.542,0,0,1,736.382,506.652Zm3.12-1.573h1.74a6.717,6.717,0,0,0,0-13.434H739.5Z" transform="translate(-717.04 -487.964)"/><path class="k" d="M744.938,506.652V490.07a1.524,1.524,0,0,1,1.546-1.546H749.8a9.838,9.838,0,0,1,0,19.675h-3.317A1.542,1.542,0,0,1,744.938,506.652Zm3.12-1.573H749.8a6.717,6.717,0,0,0,0-13.434h-1.742Z" transform="translate(-706.236 -487.964)"/><path class="k" d="M770.469,491.645H766v15.007a1.522,1.522,0,0,1-1.543,1.548,1.543,1.543,0,0,1-1.548-1.548V491.645h-4.442a1.565,1.565,0,0,1-1.543-1.575,1.523,1.523,0,0,1,1.543-1.546h12a1.542,1.542,0,0,1,1.548,1.546A1.585,1.585,0,0,1,770.469,491.645Z" transform="translate(-691.1 -487.964)"/><path class="k" d="M780.958,491.282a10.326,10.326,0,0,1,0,14.224,9.2,9.2,0,0,1-6.714,3.007,9.48,9.48,0,0,1-6.886-3.007,10.472,10.472,0,0,1,0-14.224,9.375,9.375,0,0,1,6.886-3A9.1,9.1,0,0,1,780.958,491.282Zm-.364,7.112a7.286,7.286,0,0,0-1.91-4.919,6.068,6.068,0,0,0-4.44-2,6.129,6.129,0,0,0-4.555,2,7.15,7.15,0,0,0-1.912,4.919,7.023,7.023,0,0,0,1.912,4.89,6.006,6.006,0,0,0,8.995,0A7.155,7.155,0,0,0,780.594,498.394Z" transform="translate(-681.441 -488.277)"/><path class="k" d="M778.856,498.394a10.321,10.321,0,0,1,10.316-10.117,10.5,10.5,0,0,1,6.492,2.193,1.613,1.613,0,0,1-1.966,2.557,7.013,7.013,0,0,0-4.526-1.548,7.447,7.447,0,0,0-5.057,2.025,6.931,6.931,0,0,0-2.055,4.89,6.831,6.831,0,0,0,2.055,4.89,7.436,7.436,0,0,0,5.057,2.025,7.077,7.077,0,0,0,4.526-1.545,1.7,1.7,0,0,1,2.247.308,1.657,1.657,0,0,1-.281,2.249,10.52,10.52,0,0,1-6.492,2.193A10.286,10.286,0,0,1,778.856,498.394Z" transform="translate(-663.404 -488.277)"/><path class="k" d="M799.325,503.546H792.5l-1.38,3.654a1.571,1.571,0,0,1-1.459.984,1.692,1.692,0,0,1-.534-.084,1.6,1.6,0,0,1-.928-2.025l6.214-16.552a1.564,1.564,0,0,1,1.489-.984,1.544,1.544,0,0,1,1.489.984l6.211,16.552a1.6,1.6,0,0,1-.928,2.025,1.575,1.575,0,0,1-.534.084,1.5,1.5,0,0,1-1.432-.984Zm-1.149-3.091-2.276-6.042-2.279,6.042Z" transform="translate(-651.723 -487.948)"/><path class="k" d="M809.887,505.867a1.555,1.555,0,0,1-.984,1.969,2.651,2.651,0,0,1-.618.084h-.027a2.063,2.063,0,0,1-1.1-.31,2.755,2.755,0,0,1-.9-.984,7.549,7.549,0,0,1-.591-3.374,2.407,2.407,0,0,0-.337-1.206,2.579,2.579,0,0,0-.844-.815,5.283,5.283,0,0,0-1.575-.674H799.6v6.1a1.564,1.564,0,0,1-1.573,1.548,1.542,1.542,0,0,1-1.546-1.548V490.07a1.524,1.524,0,0,1,1.546-1.546h5.032a6.012,6.012,0,0,1,6.014,6.042,5.949,5.949,0,0,1-2.193,4.609,4.374,4.374,0,0,1,.984,1.041,5.334,5.334,0,0,1,.925,3.034,7.139,7.139,0,0,0,.113,1.661A1.51,1.51,0,0,1,809.887,505.867Zm-3.935-11.3a2.9,2.9,0,0,0-2.894-2.921H799.6v5.79h3.46A2.884,2.884,0,0,0,805.952,494.567Z" transform="translate(-641.149 -487.964)"/><path class="k" d="M817.043,491.645h-4.467v15.007a1.524,1.524,0,0,1-1.545,1.548,1.541,1.541,0,0,1-1.546-1.548V491.645h-4.442a1.566,1.566,0,0,1-1.546-1.575,1.524,1.524,0,0,1,1.546-1.546h12a1.542,1.542,0,0,1,1.548,1.546A1.586,1.586,0,0,1,817.043,491.645Z" transform="translate(-632.287 -487.964)"/></g></g><g transform="translate(32.734 90.903)"><rect class="b" width="296.662" height="296.661"/><ellipse class="a" cx="122.012" cy="16.941" rx="122.012" ry="16.941" transform="translate(26.318 246.476)"/><g transform="translate(43.035 35.036)"><g transform="translate(0 77.175)"><path class="g" d="M901.817,459.259H753.7c-40.036,0-33.612-32.021-24.008-65.63s23.827-84.545,59.6-84.545h76.93c35.777,0,50,50.935,59.6,84.545S941.853,459.259,901.817,459.259Z" transform="translate(-722.46 -309.085)"/><g class="l" transform="translate(9.089 0.088)"><path d="M751.851,310.654a1.53,1.53,0,1,1-1.53-1.53A1.528,1.528,0,0,1,751.851,310.654Z" transform="translate(-698.298 -309.124)"/><path d="M763.009,310.654a1.53,1.53,0,1,1-1.53-1.53A1.529,1.529,0,0,1,763.009,310.654Z" transform="translate(-684.208 -309.124)"/><path d="M774.169,310.654a1.531,1.531,0,1,1-1.53-1.53A1.529,1.529,0,0,1,774.169,310.654Z" transform="translate(-670.119 -309.124)"/><path d="M785.326,310.654a1.531,1.531,0,1,1-1.532-1.53A1.53,1.53,0,0,1,785.326,310.654Z" transform="translate(-656.028 -309.124)"/><path d="M740.7,325a1.531,1.531,0,1,1-1.53-1.53A1.531,1.531,0,0,1,740.7,325Z" transform="translate(-712.388 -291.013)"/><circle cx="1.53" cy="1.53" r="1.53" transform="translate(50.494 32.452)"/><path d="M763.009,325a1.53,1.53,0,1,1-1.53-1.53A1.531,1.531,0,0,1,763.009,325Z" transform="translate(-684.208 -291.013)"/><path d="M774.169,325a1.531,1.531,0,1,1-1.53-1.53A1.531,1.531,0,0,1,774.169,325Z" transform="translate(-670.119 -291.013)"/><path d="M785.326,325a1.531,1.531,0,1,1-1.532-1.53A1.531,1.531,0,0,1,785.326,325Z" transform="translate(-656.028 -291.013)"/><path d="M796.482,325a1.53,1.53,0,1,1-1.53-1.53A1.529,1.529,0,0,1,796.482,325Z" transform="translate(-641.938 -291.013)"/><path d="M746.274,317.642a1.531,1.531,0,1,1-1.532-1.53A1.531,1.531,0,0,1,746.274,317.642Z" transform="translate(-705.343 -300.3)"/><path d="M757.43,317.642a1.53,1.53,0,1,1-1.53-1.53A1.529,1.529,0,0,1,757.43,317.642Z" transform="translate(-691.253 -300.3)"/><path d="M768.588,317.642a1.53,1.53,0,1,1-1.53-1.53A1.531,1.531,0,0,1,768.588,317.642Z" transform="translate(-677.162 -300.3)"/><path d="M779.747,317.642a1.531,1.531,0,1,1-1.53-1.53A1.531,1.531,0,0,1,779.747,317.642Z" transform="translate(-663.074 -300.3)"/><path d="M790.9,317.642a1.53,1.53,0,1,1-1.53-1.53A1.529,1.529,0,0,1,790.9,317.642Z" transform="translate(-648.983 -300.3)"/><path d="M801.839,318.365a1.464,1.464,0,0,1-1.312.774A1.521,1.521,0,0,1,799,317.616a1.55,1.55,0,0,1,1.054-1.475C800.667,316.867,801.253,317.594,801.839,318.365Z" transform="translate(-634.891 -300.263)"/><path d="M740.7,339.337a1.531,1.531,0,1,1-1.53-1.53A1.531,1.531,0,0,1,740.7,339.337Z" transform="translate(-712.388 -272.903)"/><circle cx="1.53" cy="1.53" r="1.53" transform="translate(50.494 64.904)"/><path d="M763.009,339.337a1.53,1.53,0,1,1-1.53-1.53A1.531,1.531,0,0,1,763.009,339.337Z" transform="translate(-684.208 -272.903)"/><path d="M774.169,339.337a1.531,1.531,0,1,1-1.53-1.53A1.531,1.531,0,0,1,774.169,339.337Z" transform="translate(-670.119 -272.903)"/><path d="M785.326,339.337a1.531,1.531,0,1,1-1.532-1.53A1.532,1.532,0,0,1,785.326,339.337Z" transform="translate(-656.028 -272.903)"/><path d="M796.482,339.337a1.53,1.53,0,1,1-1.53-1.53A1.53,1.53,0,0,1,796.482,339.337Z" transform="translate(-641.938 -272.903)"/><circle cx="1.53" cy="1.53" r="1.53" transform="translate(176.732 64.904)"/><path d="M735.117,331.983a1.531,1.531,0,1,1-1.53-1.53A1.531,1.531,0,0,1,735.117,331.983Z" transform="translate(-719.433 -282.19)"/><path d="M746.274,331.983a1.531,1.531,0,1,1-1.532-1.53A1.532,1.532,0,0,1,746.274,331.983Z" transform="translate(-705.343 -282.19)"/><path d="M757.43,331.983a1.53,1.53,0,1,1-1.53-1.53A1.53,1.53,0,0,1,757.43,331.983Z" transform="translate(-691.253 -282.19)"/><path d="M768.588,331.983a1.53,1.53,0,1,1-1.53-1.53A1.531,1.531,0,0,1,768.588,331.983Z" transform="translate(-677.162 -282.19)"/><path d="M779.747,331.983a1.531,1.531,0,1,1-1.53-1.53A1.531,1.531,0,0,1,779.747,331.983Z" transform="translate(-663.074 -282.19)"/><path d="M790.9,331.983a1.53,1.53,0,1,1-1.53-1.53A1.53,1.53,0,0,1,790.9,331.983Z" transform="translate(-648.983 -282.19)"/><path d="M802.061,331.983a1.53,1.53,0,1,1-1.53-1.53A1.531,1.531,0,0,1,802.061,331.983Z" transform="translate(-634.893 -282.19)"/><path d="M729.536,353.679a1.53,1.53,0,1,1-1.53-1.53A1.529,1.529,0,0,1,729.536,353.679Z" transform="translate(-726.477 -254.792)"/><path d="M740.7,353.679a1.531,1.531,0,1,1-1.53-1.53A1.529,1.529,0,0,1,740.7,353.679Z" transform="translate(-712.388 -254.792)"/><circle cx="1.53" cy="1.53" r="1.53" transform="translate(50.494 97.356)"/><path d="M763.009,353.679a1.53,1.53,0,1,1-1.53-1.53A1.529,1.529,0,0,1,763.009,353.679Z" transform="translate(-684.208 -254.792)"/><path d="M774.169,353.679a1.531,1.531,0,1,1-1.53-1.53A1.529,1.529,0,0,1,774.169,353.679Z" transform="translate(-670.119 -254.792)"/><path d="M785.326,353.679a1.531,1.531,0,1,1-1.532-1.53A1.53,1.53,0,0,1,785.326,353.679Z" transform="translate(-656.028 -254.792)"/><path d="M796.482,353.679a1.53,1.53,0,1,1-1.53-1.53A1.528,1.528,0,0,1,796.482,353.679Z" transform="translate(-641.938 -254.792)"/><circle cx="1.53" cy="1.53" r="1.53" transform="translate(176.732 97.356)"/><path d="M735.117,346.325a1.531,1.531,0,1,1-1.53-1.53A1.531,1.531,0,0,1,735.117,346.325Z" transform="translate(-719.433 -264.079)"/><path d="M746.274,346.325a1.531,1.531,0,1,1-1.532-1.53A1.531,1.531,0,0,1,746.274,346.325Z" transform="translate(-705.343 -264.079)"/><path d="M757.43,346.325a1.53,1.53,0,1,1-1.53-1.53A1.529,1.529,0,0,1,757.43,346.325Z" transform="translate(-691.253 -264.079)"/><path d="M768.588,346.325a1.53,1.53,0,1,1-1.53-1.53A1.531,1.531,0,0,1,768.588,346.325Z" transform="translate(-677.162 -264.079)"/><path d="M779.747,346.325a1.531,1.531,0,1,1-1.53-1.53A1.531,1.531,0,0,1,779.747,346.325Z" transform="translate(-663.074 -264.079)"/><path d="M790.9,346.325a1.53,1.53,0,1,1-1.53-1.53A1.529,1.529,0,0,1,790.9,346.325Z" transform="translate(-648.983 -264.079)"/><path d="M802.061,346.325a1.53,1.53,0,1,1-1.53-1.53A1.531,1.531,0,0,1,802.061,346.325Z" transform="translate(-634.893 -264.079)"/><path d="M813.221,346.325a1.531,1.531,0,1,1-1.53-1.53A1.531,1.531,0,0,1,813.221,346.325Z" transform="translate(-620.804 -264.079)"/><path d="M729.536,368.022a1.53,1.53,0,1,1-1.53-1.532A1.531,1.531,0,0,1,729.536,368.022Z" transform="translate(-726.477 -236.683)"/><path d="M740.7,368.022a1.531,1.531,0,1,1-1.53-1.532A1.531,1.531,0,0,1,740.7,368.022Z" transform="translate(-712.388 -236.683)"/><circle cx="1.53" cy="1.53" r="1.53" transform="translate(50.494 129.808)"/><path d="M763.009,368.022a1.53,1.53,0,1,1-1.53-1.532A1.531,1.531,0,0,1,763.009,368.022Z" transform="translate(-684.208 -236.683)"/><path d="M774.169,368.022a1.531,1.531,0,1,1-1.53-1.532A1.531,1.531,0,0,1,774.169,368.022Z" transform="translate(-670.119 -236.683)"/><path d="M785.326,368.022a1.531,1.531,0,1,1-1.532-1.532A1.531,1.531,0,0,1,785.326,368.022Z" transform="translate(-656.028 -236.683)"/><path d="M796.482,368.022a1.53,1.53,0,1,1-1.53-1.532A1.529,1.529,0,0,1,796.482,368.022Z" transform="translate(-641.938 -236.683)"/><circle cx="1.53" cy="1.53" r="1.53" transform="translate(176.732 129.808)"/><path d="M735.117,360.668a1.531,1.531,0,1,1-1.53-1.532A1.531,1.531,0,0,1,735.117,360.668Z" transform="translate(-719.433 -245.969)"/><path d="M746.274,360.668a1.531,1.531,0,1,1-1.532-1.532A1.531,1.531,0,0,1,746.274,360.668Z" transform="translate(-705.343 -245.969)"/><path d="M757.43,360.668a1.53,1.53,0,1,1-1.53-1.532A1.529,1.529,0,0,1,757.43,360.668Z" transform="translate(-691.253 -245.969)"/><path d="M768.588,360.668a1.53,1.53,0,1,1-1.53-1.532A1.531,1.531,0,0,1,768.588,360.668Z" transform="translate(-677.162 -245.969)"/><path d="M779.747,360.668a1.531,1.531,0,1,1-1.53-1.532A1.531,1.531,0,0,1,779.747,360.668Z" transform="translate(-663.074 -245.969)"/><path d="M790.9,360.668a1.53,1.53,0,1,1-1.53-1.532A1.529,1.529,0,0,1,790.9,360.668Z" transform="translate(-648.983 -245.969)"/><path d="M802.061,360.668a1.53,1.53,0,1,1-1.53-1.532A1.531,1.531,0,0,1,802.061,360.668Z" transform="translate(-634.893 -245.969)"/><path d="M813.221,360.668a1.531,1.531,0,1,1-1.53-1.532A1.531,1.531,0,0,1,813.221,360.668Z" transform="translate(-620.804 -245.969)"/><circle cx="1.53" cy="1.53" r="1.53" transform="translate(12.623 145.62)"/><path d="M746.274,375.008a1.531,1.531,0,1,1-1.532-1.53A1.532,1.532,0,0,1,746.274,375.008Z" transform="translate(-705.343 -227.858)"/><path d="M757.43,375.008a1.53,1.53,0,1,1-1.53-1.53A1.53,1.53,0,0,1,757.43,375.008Z" transform="translate(-691.253 -227.858)"/><path d="M768.588,375.008a1.53,1.53,0,1,1-1.53-1.53A1.531,1.531,0,0,1,768.588,375.008Z" transform="translate(-677.162 -227.858)"/><circle cx="1.53" cy="1.53" r="1.53" transform="translate(113.613 145.62)"/><circle cx="1.53" cy="1.53" r="1.53" transform="translate(138.861 145.62)"/><path d="M802.061,375.008a1.53,1.53,0,1,1-1.53-1.53A1.531,1.531,0,0,1,802.061,375.008Z" transform="translate(-634.893 -227.858)"/><path d="M811.157,373.49a4.249,4.249,0,0,1-.819.468A1.508,1.508,0,0,1,811.157,373.49Z" transform="translate(-620.578 -227.843)"/></g></g><g transform="translate(52.084)"><circle class="m" cx="12.275" cy="12.275" r="12.275" transform="translate(0 82.579)"/><circle class="m" cx="12.275" cy="12.275" r="12.275" transform="translate(81.867 82.579)"/><circle class="n" cx="8.316" cy="8.316" r="8.316" transform="translate(3.958 86.537)"/><circle class="n" cx="8.316" cy="8.316" r="8.316" transform="translate(85.825 86.537)"/><path class="g" d="M835.383,371.634a4.685,4.685,0,0,1-4.684-4.684,233.281,233.281,0,0,0-7-44.127c-4.711-17.552-13.416-38.477-28.138-38.477-27.187,0-37.363,68.59-37.363,82.6a4.684,4.684,0,0,1-9.368,0c0-.919,5.693-91.971,46.731-91.971,39.784,0,44.5,91.052,44.5,91.971A4.685,4.685,0,0,1,835.383,371.634Z" transform="translate(-741.242 -274.979)"/></g></g></g><g transform="translate(32.73 462.649)"><rect class="b" width="52.87" height="52.87"/><g transform="translate(7.67 6.245)"><g transform="translate(0 13.753)"><path class="o" d="M738.794,459.384H712.4c-7.135,0-5.99-5.707-4.279-11.7s4.245-15.068,10.622-15.068h13.71c6.377,0,8.911,9.076,10.622,15.068S745.929,459.384,738.794,459.384Z" transform="translate(-706.83 -432.62)"/><g class="l" transform="translate(1.618 0.016)"><path d="M712.067,432.9a.273.273,0,1,1-.272-.272A.273.273,0,0,1,712.067,432.9Z" transform="translate(-702.523 -432.627)"/><path d="M714.056,432.9a.273.273,0,1,1-.274-.272A.273.273,0,0,1,714.056,432.9Z" transform="translate(-700.011 -432.627)"/><path d="M716.044,432.9a.273.273,0,1,1-.271-.272A.273.273,0,0,1,716.044,432.9Z" transform="translate(-697.501 -432.627)"/><path d="M718.033,432.9a.273.273,0,1,1-.274-.272A.273.273,0,0,1,718.033,432.9Z" transform="translate(-694.989 -432.627)"/><path d="M710.079,435.454a.273.273,0,1,1-.274-.272A.273.273,0,0,1,710.079,435.454Z" transform="translate(-705.033 -429.399)"/><path d="M712.067,435.454a.273.273,0,1,1-.272-.272A.273.273,0,0,1,712.067,435.454Z" transform="translate(-702.523 -429.399)"/><path d="M714.056,435.454a.273.273,0,1,1-.274-.272A.273.273,0,0,1,714.056,435.454Z" transform="translate(-700.011 -429.399)"/><path d="M716.044,435.454a.273.273,0,1,1-.271-.272A.273.273,0,0,1,716.044,435.454Z" transform="translate(-697.501 -429.399)"/><path d="M718.033,435.454a.273.273,0,1,1-.274-.272A.273.273,0,0,1,718.033,435.454Z" transform="translate(-694.989 -429.399)"/><path d="M720.021,435.454a.273.273,0,1,1-.272-.272A.273.273,0,0,1,720.021,435.454Z" transform="translate(-692.479 -429.399)"/><circle cx="0.273" cy="0.273" r="0.273" transform="translate(6.75 2.818)"/><circle cx="0.273" cy="0.273" r="0.273" transform="translate(11.25 2.818)"/><circle cx="0.273" cy="0.273" r="0.273" transform="translate(15.749 2.818)"/><path d="M717.041,434.146a.274.274,0,1,1-.274-.274A.273.273,0,0,1,717.041,434.146Z" transform="translate(-696.245 -431.055)"/><path d="M719.027,434.146a.273.273,0,1,1-.274-.274A.273.273,0,0,1,719.027,434.146Z" transform="translate(-693.734 -431.055)"/><path d="M720.975,434.275a.257.257,0,0,1-.233.136.269.269,0,0,1-.271-.269.277.277,0,0,1,.188-.265C720.767,434.008,720.871,434.137,720.975,434.275Z" transform="translate(-691.222 -431.048)"/><path d="M710.079,438.01a.273.273,0,1,1-.274-.272A.273.273,0,0,1,710.079,438.01Z" transform="translate(-705.033 -426.172)"/><path d="M712.067,438.01a.273.273,0,1,1-.272-.272A.273.273,0,0,1,712.067,438.01Z" transform="translate(-702.523 -426.172)"/><path d="M714.056,438.01a.273.273,0,1,1-.274-.272A.273.273,0,0,1,714.056,438.01Z" transform="translate(-700.011 -426.172)"/><path d="M716.044,438.01a.273.273,0,1,1-.271-.272A.273.273,0,0,1,716.044,438.01Z" transform="translate(-697.501 -426.172)"/><path d="M718.033,438.01a.273.273,0,1,1-.274-.272A.273.273,0,0,1,718.033,438.01Z" transform="translate(-694.989 -426.172)"/><path d="M720.021,438.01a.273.273,0,1,1-.272-.272A.273.273,0,0,1,720.021,438.01Z" transform="translate(-692.479 -426.172)"/><path d="M722.01,438.01a.273.273,0,1,1-.274-.272A.273.273,0,0,1,722.01,438.01Z" transform="translate(-689.967 -426.172)"/><circle cx="0.273" cy="0.273" r="0.273" transform="translate(2.251 8.601)"/><circle cx="0.273" cy="0.273" r="0.273" transform="translate(6.75 8.601)"/><circle cx="0.273" cy="0.273" r="0.273" transform="translate(11.25 8.601)"/><circle cx="0.273" cy="0.273" r="0.273" transform="translate(15.749 8.601)"/><path d="M717.041,436.7a.274.274,0,1,1-.274-.274A.273.273,0,0,1,717.041,436.7Z" transform="translate(-696.245 -427.827)"/><path d="M719.027,436.7a.273.273,0,1,1-.274-.274A.273.273,0,0,1,719.027,436.7Z" transform="translate(-693.734 -427.827)"/><path d="M721.015,436.7a.273.273,0,1,1-.271-.274A.271.271,0,0,1,721.015,436.7Z" transform="translate(-691.223 -427.827)"/><path d="M708.09,440.567a.273.273,0,1,1-.271-.272A.273.273,0,0,1,708.09,440.567Z" transform="translate(-707.545 -422.944)"/><path d="M710.079,440.567a.273.273,0,1,1-.274-.272A.273.273,0,0,1,710.079,440.567Z" transform="translate(-705.033 -422.944)"/><path d="M712.067,440.567a.273.273,0,1,1-.272-.272A.273.273,0,0,1,712.067,440.567Z" transform="translate(-702.523 -422.944)"/><path d="M714.056,440.567a.273.273,0,1,1-.274-.272A.273.273,0,0,1,714.056,440.567Z" transform="translate(-700.011 -422.944)"/><path d="M716.044,440.567a.273.273,0,1,1-.271-.272A.273.273,0,0,1,716.044,440.567Z" transform="translate(-697.501 -422.944)"/><path d="M718.033,440.567a.273.273,0,1,1-.274-.272A.273.273,0,0,1,718.033,440.567Z" transform="translate(-694.989 -422.944)"/><path d="M720.021,440.567a.273.273,0,1,1-.272-.272A.273.273,0,0,1,720.021,440.567Z" transform="translate(-692.479 -422.944)"/><path d="M722.01,440.567a.273.273,0,1,1-.274-.272A.273.273,0,0,1,722.01,440.567Z" transform="translate(-689.967 -422.944)"/><circle cx="0.273" cy="0.273" r="0.273" transform="translate(2.251 14.385)"/><circle cx="0.273" cy="0.273" r="0.273" transform="translate(6.75 14.385)"/><circle cx="0.273" cy="0.273" r="0.273" transform="translate(11.25 14.385)"/><circle cx="0.273" cy="0.273" r="0.273" transform="translate(15.749 14.385)"/><path d="M717.041,439.255a.274.274,0,1,1-.274-.271A.273.273,0,0,1,717.041,439.255Z" transform="translate(-696.245 -424.599)"/><path d="M719.027,439.255a.273.273,0,1,1-.274-.271A.273.273,0,0,1,719.027,439.255Z" transform="translate(-693.734 -424.599)"/><path d="M721.015,439.255a.273.273,0,1,1-.271-.271A.271.271,0,0,1,721.015,439.255Z" transform="translate(-691.223 -424.599)"/><path d="M723,439.255a.273.273,0,1,1-.274-.271A.273.273,0,0,1,723,439.255Z" transform="translate(-688.712 -424.599)"/><circle cx="0.273" cy="0.273" r="0.273" transform="translate(0.001 23.134)"/><circle cx="0.273" cy="0.273" r="0.273" transform="translate(4.5 23.134)"/><path d="M712.067,443.122a.273.273,0,1,1-.272-.272A.273.273,0,0,1,712.067,443.122Z" transform="translate(-702.523 -419.716)"/><path d="M714.056,443.122a.273.273,0,1,1-.274-.272A.273.273,0,0,1,714.056,443.122Z" transform="translate(-700.011 -419.716)"/><circle cx="0.273" cy="0.273" r="0.273" transform="translate(17.999 23.134)"/><circle cx="0.273" cy="0.273" r="0.273" transform="translate(22.498 23.134)"/><circle cx="0.273" cy="0.273" r="0.273" transform="translate(26.998 23.134)"/><circle cx="0.273" cy="0.273" r="0.273" transform="translate(31.498 23.134)"/><circle cx="0.273" cy="0.273" r="0.273" transform="translate(2.251 20.168)"/><circle cx="0.273" cy="0.273" r="0.273" transform="translate(6.75 20.168)"/><circle cx="0.273" cy="0.273" r="0.273" transform="translate(11.25 20.168)"/><circle cx="0.273" cy="0.273" r="0.273" transform="translate(15.749 20.168)"/><path d="M717.041,441.811a.274.274,0,1,1-.274-.271A.273.273,0,0,1,717.041,441.811Z" transform="translate(-696.245 -421.372)"/><path d="M719.027,441.811a.273.273,0,1,1-.274-.271A.273.273,0,0,1,719.027,441.811Z" transform="translate(-693.734 -421.372)"/><path d="M721.015,441.811a.273.273,0,1,1-.271-.271A.271.271,0,0,1,721.015,441.811Z" transform="translate(-691.223 -421.372)"/><path d="M723,441.811a.273.273,0,1,1-.274-.271A.273.273,0,0,1,723,441.811Z" transform="translate(-688.712 -421.372)"/><circle cx="0.273" cy="0.273" r="0.273" transform="translate(2.251 25.951)"/><circle cx="0.273" cy="0.273" r="0.273" transform="translate(6.75 25.951)"/><circle cx="0.273" cy="0.273" r="0.273" transform="translate(11.25 25.951)"/><circle cx="0.273" cy="0.273" r="0.273" transform="translate(15.749 25.951)"/><path d="M717.041,444.367a.274.274,0,1,1-.274-.271A.273.273,0,0,1,717.041,444.367Z" transform="translate(-696.245 -418.144)"/><path d="M719.027,444.367a.273.273,0,1,1-.274-.271A.273.273,0,0,1,719.027,444.367Z" transform="translate(-693.734 -418.144)"/><path d="M721.015,444.367a.273.273,0,1,1-.271-.271A.271.271,0,0,1,721.015,444.367Z" transform="translate(-691.223 -418.144)"/><path d="M722.636,444.1a.664.664,0,0,1-.145.084A.248.248,0,0,1,722.636,444.1Z" transform="translate(-688.671 -418.142)"/></g></g><g transform="translate(9.282)"><path class="m" d="M715.306,435.232a2.187,2.187,0,1,1-2.188-2.186A2.188,2.188,0,0,1,715.306,435.232Z" transform="translate(-710.932 -418.329)"/><path class="m" d="M721.755,435.232a2.188,2.188,0,1,1-2.188-2.186A2.188,2.188,0,0,1,721.755,435.232Z" transform="translate(-702.791 -418.329)"/><path class="n" d="M714.207,434.839a1.482,1.482,0,1,1-1.482-1.482A1.481,1.481,0,0,1,714.207,434.839Z" transform="translate(-710.539 -417.936)"/><circle class="n" cx="1.482" cy="1.482" r="1.482" transform="translate(15.295 15.422)"/><path class="o" d="M726.954,443.766a.834.834,0,0,1-.835-.835,41.516,41.516,0,0,0-1.247-7.863c-.84-3.129-2.392-6.856-5.014-6.856-4.845,0-6.659,12.224-6.659,14.719a.835.835,0,0,1-1.67,0c0-.163,1.016-16.389,8.329-16.389,7.089,0,7.931,16.227,7.931,16.389A.834.834,0,0,1,726.954,443.766Z" transform="translate(-710.178 -426.542)"/></g></g></g><g transform="translate(96.92 461.517)"><rect class="b" width="52.87" height="52.87" transform="translate(1.13 1.132)"/><path class="n" d="M786.939,478.415H731.808V423.282h55.131Zm-52.868-2.263h50.605V425.545H734.071Z" transform="translate(-731.808 -423.282)"/><g transform="translate(8.8 7.377)"><g transform="translate(0 13.753)"><path class="g" d="M767.661,459.384h-26.4c-7.135,0-5.99-5.707-4.279-11.7s4.247-15.068,10.622-15.068h13.71c6.377,0,8.911,9.076,10.624,15.068S774.8,459.384,767.661,459.384Z" transform="translate(-735.697 -432.62)"/><g class="l" transform="translate(1.619 0.016)"><path d="M740.935,432.9a.273.273,0,1,1-.274-.272A.273.273,0,0,1,740.935,432.9Z" transform="translate(-731.39 -432.627)"/><path d="M742.923,432.9a.273.273,0,1,1-.271-.272A.273.273,0,0,1,742.923,432.9Z" transform="translate(-728.879 -432.627)"/><path d="M744.913,432.9a.274.274,0,1,1-.274-.272A.273.273,0,0,1,744.913,432.9Z" transform="translate(-726.369 -432.627)"/><path d="M746.9,432.9a.273.273,0,1,1-.274-.272A.273.273,0,0,1,746.9,432.9Z" transform="translate(-723.857 -432.627)"/><path d="M738.946,435.454a.273.273,0,1,1-.272-.272A.273.273,0,0,1,738.946,435.454Z" transform="translate(-733.902 -429.399)"/><path d="M740.935,435.454a.273.273,0,1,1-.274-.272A.273.273,0,0,1,740.935,435.454Z" transform="translate(-731.39 -429.399)"/><path d="M742.923,435.454a.273.273,0,1,1-.271-.272A.273.273,0,0,1,742.923,435.454Z" transform="translate(-728.879 -429.399)"/><path d="M744.913,435.454a.274.274,0,1,1-.274-.272A.273.273,0,0,1,744.913,435.454Z" transform="translate(-726.369 -429.399)"/><path d="M746.9,435.454a.273.273,0,1,1-.274-.272A.273.273,0,0,1,746.9,435.454Z" transform="translate(-723.857 -429.399)"/><path d="M748.888,435.454a.273.273,0,1,1-.271-.272A.271.271,0,0,1,748.888,435.454Z" transform="translate(-721.347 -429.399)"/><path d="M739.94,434.146a.273.273,0,1,1-.271-.274A.272.272,0,0,1,739.94,434.146Z" transform="translate(-732.646 -431.055)"/><circle cx="0.273" cy="0.273" r="0.273" transform="translate(11.249 2.818)"/><circle cx="0.273" cy="0.273" r="0.273" transform="translate(15.748 2.818)"/><circle cx="0.273" cy="0.273" r="0.273" transform="translate(20.248 2.818)"/><circle cx="0.273" cy="0.273" r="0.273" transform="translate(24.747 2.818)"/><path d="M749.842,434.275a.257.257,0,0,1-.233.136.27.27,0,0,1-.271-.269.277.277,0,0,1,.188-.265C749.634,434.008,749.738,434.137,749.842,434.275Z" transform="translate(-720.09 -431.048)"/><path d="M738.946,438.01a.273.273,0,1,1-.272-.272A.273.273,0,0,1,738.946,438.01Z" transform="translate(-733.902 -426.172)"/><path d="M740.935,438.01a.273.273,0,1,1-.274-.272A.273.273,0,0,1,740.935,438.01Z" transform="translate(-731.39 -426.172)"/><path d="M742.923,438.01a.273.273,0,1,1-.271-.272A.273.273,0,0,1,742.923,438.01Z" transform="translate(-728.879 -426.172)"/><path d="M744.913,438.01a.274.274,0,1,1-.274-.272A.273.273,0,0,1,744.913,438.01Z" transform="translate(-726.369 -426.172)"/><path d="M746.9,438.01a.273.273,0,1,1-.274-.272A.273.273,0,0,1,746.9,438.01Z" transform="translate(-723.857 -426.172)"/><path d="M748.888,438.01a.273.273,0,1,1-.271-.272A.271.271,0,0,1,748.888,438.01Z" transform="translate(-721.347 -426.172)"/><path d="M750.877,438.01a.273.273,0,1,1-.274-.272A.273.273,0,0,1,750.877,438.01Z" transform="translate(-718.835 -426.172)"/><path d="M737.952,436.7a.273.273,0,1,1-.274-.274A.273.273,0,0,1,737.952,436.7Z" transform="translate(-735.157 -427.827)"/><path d="M739.94,436.7a.273.273,0,1,1-.271-.274A.272.272,0,0,1,739.94,436.7Z" transform="translate(-732.646 -427.827)"/><circle cx="0.273" cy="0.273" r="0.273" transform="translate(11.249 8.601)"/><circle cx="0.273" cy="0.273" r="0.273" transform="translate(15.748 8.601)"/><circle cx="0.273" cy="0.273" r="0.273" transform="translate(20.248 8.601)"/><circle cx="0.273" cy="0.273" r="0.273" transform="translate(24.747 8.601)"/><path d="M749.883,436.7a.273.273,0,1,1-.274-.274A.273.273,0,0,1,749.883,436.7Z" transform="translate(-720.09 -427.827)"/><path d="M736.958,440.567a.273.273,0,1,1-.274-.272A.273.273,0,0,1,736.958,440.567Z" transform="translate(-736.412 -422.944)"/><path d="M738.946,440.567a.273.273,0,1,1-.272-.272A.273.273,0,0,1,738.946,440.567Z" transform="translate(-733.902 -422.944)"/><path d="M740.935,440.567a.273.273,0,1,1-.274-.272A.273.273,0,0,1,740.935,440.567Z" transform="translate(-731.39 -422.944)"/><path d="M742.923,440.567a.273.273,0,1,1-.271-.272A.273.273,0,0,1,742.923,440.567Z" transform="translate(-728.879 -422.944)"/><path d="M744.913,440.567a.274.274,0,1,1-.274-.272A.273.273,0,0,1,744.913,440.567Z" transform="translate(-726.369 -422.944)"/><path d="M746.9,440.567a.273.273,0,1,1-.274-.272A.273.273,0,0,1,746.9,440.567Z" transform="translate(-723.857 -422.944)"/><path d="M748.888,440.567a.273.273,0,1,1-.271-.272A.271.271,0,0,1,748.888,440.567Z" transform="translate(-721.347 -422.944)"/><path d="M750.877,440.567a.273.273,0,1,1-.274-.272A.273.273,0,0,1,750.877,440.567Z" transform="translate(-718.835 -422.944)"/><path d="M737.952,439.255a.273.273,0,1,1-.274-.271A.273.273,0,0,1,737.952,439.255Z" transform="translate(-735.157 -424.599)"/><path d="M739.94,439.255a.273.273,0,1,1-.271-.271A.273.273,0,0,1,739.94,439.255Z" transform="translate(-732.646 -424.599)"/><circle cx="0.273" cy="0.273" r="0.273" transform="translate(11.249 14.385)"/><circle cx="0.273" cy="0.273" r="0.273" transform="translate(15.748 14.385)"/><circle cx="0.273" cy="0.273" r="0.273" transform="translate(20.248 14.385)"/><circle cx="0.273" cy="0.273" r="0.273" transform="translate(24.747 14.385)"/><path d="M749.883,439.255a.273.273,0,1,1-.274-.271A.273.273,0,0,1,749.883,439.255Z" transform="translate(-720.09 -424.599)"/><circle cx="0.273" cy="0.273" r="0.273" transform="translate(33.746 14.385)"/><circle cx="0.273" cy="0.273" r="0.273" transform="translate(0 23.134)"/><circle cx="0.273" cy="0.273" r="0.273" transform="translate(4.499 23.134)"/><circle cx="0.273" cy="0.273" r="0.273" transform="translate(8.999 23.134)"/><path d="M742.923,443.122a.273.273,0,1,1-.271-.272A.273.273,0,0,1,742.923,443.122Z" transform="translate(-728.879 -419.716)"/><path d="M744.913,443.122a.274.274,0,1,1-.274-.272A.273.273,0,0,1,744.913,443.122Z" transform="translate(-726.369 -419.716)"/><path d="M746.9,443.122a.273.273,0,1,1-.274-.272A.273.273,0,0,1,746.9,443.122Z" transform="translate(-723.857 -419.716)"/><path d="M748.888,443.122a.273.273,0,1,1-.271-.272A.271.271,0,0,1,748.888,443.122Z" transform="translate(-721.347 -419.716)"/><path d="M750.877,443.122a.273.273,0,1,1-.274-.272A.273.273,0,0,1,750.877,443.122Z" transform="translate(-718.835 -419.716)"/><path d="M737.952,441.811a.273.273,0,1,1-.274-.271A.273.273,0,0,1,737.952,441.811Z" transform="translate(-735.157 -421.372)"/><path d="M739.94,441.811a.273.273,0,1,1-.271-.271A.273.273,0,0,1,739.94,441.811Z" transform="translate(-732.646 -421.372)"/><circle cx="0.273" cy="0.273" r="0.273" transform="translate(11.249 20.168)"/><circle cx="0.273" cy="0.273" r="0.273" transform="translate(15.748 20.168)"/><circle cx="0.273" cy="0.273" r="0.273" transform="translate(20.248 20.168)"/><circle cx="0.273" cy="0.273" r="0.273" transform="translate(24.747 20.168)"/><path d="M749.883,441.811a.273.273,0,1,1-.274-.271A.273.273,0,0,1,749.883,441.811Z" transform="translate(-720.09 -421.372)"/><circle cx="0.273" cy="0.273" r="0.273" transform="translate(33.746 20.168)"/><path d="M737.952,444.367a.273.273,0,1,1-.274-.271A.273.273,0,0,1,737.952,444.367Z" transform="translate(-735.157 -418.144)"/><path d="M739.94,444.367a.273.273,0,1,1-.271-.271A.273.273,0,0,1,739.94,444.367Z" transform="translate(-732.646 -418.144)"/><circle cx="0.273" cy="0.273" r="0.273" transform="translate(11.249 25.951)"/><circle cx="0.273" cy="0.273" r="0.273" transform="translate(15.748 25.951)"/><circle cx="0.273" cy="0.273" r="0.273" transform="translate(20.248 25.951)"/><circle cx="0.273" cy="0.273" r="0.273" transform="translate(24.747 25.951)"/><path d="M749.883,444.367a.273.273,0,1,1-.274-.271A.273.273,0,0,1,749.883,444.367Z" transform="translate(-720.09 -418.144)"/><path d="M751.5,444.1a.662.662,0,0,1-.145.084A.263.263,0,0,1,751.5,444.1Z" transform="translate(-717.54 -418.142)"/></g></g><g transform="translate(9.282)"><path class="m" d="M744.173,435.232a2.187,2.187,0,1,1-2.186-2.186A2.186,2.186,0,0,1,744.173,435.232Z" transform="translate(-739.799 -418.329)"/><path class="m" d="M750.621,435.232a2.187,2.187,0,1,1-2.188-2.186A2.188,2.188,0,0,1,750.621,435.232Z" transform="translate(-731.656 -418.329)"/><circle class="n" cx="1.482" cy="1.482" r="1.482" transform="translate(0.705 15.422)"/><circle class="n" cx="1.482" cy="1.482" r="1.482" transform="translate(15.295 15.422)"/><path class="g" d="M755.82,443.766a.834.834,0,0,1-.833-.835,41.6,41.6,0,0,0-1.249-7.863c-.84-3.129-2.39-6.856-5.014-6.856-4.845,0-6.66,12.224-6.66,14.719a.834.834,0,1,1-1.668,0c0-.163,1.014-16.389,8.327-16.389,7.092,0,7.931,16.227,7.931,16.389A.834.834,0,0,1,755.82,443.766Z" transform="translate(-739.044 -426.542)"/></g></g></g><g transform="translate(163.37 462.649)"><rect class="b" width="52.87" height="52.87"/><g transform="translate(7.669 6.245)"><g transform="translate(0 13.753)"><path class="e" d="M796.528,459.384h-26.4c-7.135,0-5.99-5.707-4.279-11.7s4.247-15.068,10.624-15.068h13.71c6.374,0,8.911,9.076,10.621,15.068S803.663,459.384,796.528,459.384Z" transform="translate(-764.564 -432.62)"/><g class="l" transform="translate(1.62 0.016)"><path d="M769.8,432.9a.273.273,0,1,1-.274-.272A.273.273,0,0,1,769.8,432.9Z" transform="translate(-760.258 -432.627)"/><path d="M771.79,432.9a.273.273,0,1,1-.271-.272A.273.273,0,0,1,771.79,432.9Z" transform="translate(-757.747 -432.627)"/><path d="M773.779,432.9a.273.273,0,1,1-.274-.272A.273.273,0,0,1,773.779,432.9Z" transform="translate(-755.236 -432.627)"/><path d="M775.767,432.9a.273.273,0,1,1-.272-.272A.273.273,0,0,1,775.767,432.9Z" transform="translate(-752.725 -432.627)"/><path d="M767.813,435.454a.273.273,0,1,1-.271-.272A.273.273,0,0,1,767.813,435.454Z" transform="translate(-762.77 -429.399)"/><path d="M769.8,435.454a.273.273,0,1,1-.274-.272A.273.273,0,0,1,769.8,435.454Z" transform="translate(-760.258 -429.399)"/><path d="M771.79,435.454a.273.273,0,1,1-.271-.272A.273.273,0,0,1,771.79,435.454Z" transform="translate(-757.747 -429.399)"/><path d="M773.779,435.454a.273.273,0,1,1-.274-.272A.273.273,0,0,1,773.779,435.454Z" transform="translate(-755.236 -429.399)"/><path d="M775.767,435.454a.273.273,0,1,1-.272-.272A.273.273,0,0,1,775.767,435.454Z" transform="translate(-752.725 -429.399)"/><path d="M777.756,435.454a.273.273,0,1,1-.274-.272A.273.273,0,0,1,777.756,435.454Z" transform="translate(-750.214 -429.399)"/><path d="M768.81,434.146a.274.274,0,1,1-.274-.274A.273.273,0,0,1,768.81,434.146Z" transform="translate(-761.514 -431.055)"/><path d="M770.8,434.146a.273.273,0,1,1-.274-.274A.273.273,0,0,1,770.8,434.146Z" transform="translate(-759.003 -431.055)"/><path d="M772.784,434.146a.273.273,0,1,1-.271-.274A.271.271,0,0,1,772.784,434.146Z" transform="translate(-756.492 -431.055)"/><path d="M774.773,434.146a.273.273,0,1,1-.274-.274A.273.273,0,0,1,774.773,434.146Z" transform="translate(-753.981 -431.055)"/><path d="M776.761,434.146a.273.273,0,1,1-.271-.274A.271.271,0,0,1,776.761,434.146Z" transform="translate(-751.47 -431.055)"/><path d="M778.712,434.275a.261.261,0,0,1-.235.136.27.27,0,0,1-.272-.269.278.278,0,0,1,.188-.265C778.5,434.008,778.606,434.137,778.712,434.275Z" transform="translate(-748.958 -431.048)"/><path d="M767.813,438.01a.273.273,0,1,1-.271-.272A.273.273,0,0,1,767.813,438.01Z" transform="translate(-762.77 -426.172)"/><path d="M769.8,438.01a.273.273,0,1,1-.274-.272A.273.273,0,0,1,769.8,438.01Z" transform="translate(-760.258 -426.172)"/><path d="M771.79,438.01a.273.273,0,1,1-.271-.272A.273.273,0,0,1,771.79,438.01Z" transform="translate(-757.747 -426.172)"/><path d="M773.779,438.01a.273.273,0,1,1-.274-.272A.273.273,0,0,1,773.779,438.01Z" transform="translate(-755.236 -426.172)"/><path d="M775.767,438.01a.273.273,0,1,1-.272-.272A.273.273,0,0,1,775.767,438.01Z" transform="translate(-752.725 -426.172)"/><path d="M777.756,438.01a.273.273,0,1,1-.274-.272A.273.273,0,0,1,777.756,438.01Z" transform="translate(-750.214 -426.172)"/><path d="M779.744,438.01a.273.273,0,1,1-.271-.272A.273.273,0,0,1,779.744,438.01Z" transform="translate(-747.703 -426.172)"/><circle cx="0.273" cy="0.273" r="0.273" transform="translate(2.249 8.601)"/><path d="M768.81,436.7a.274.274,0,1,1-.274-.274A.273.273,0,0,1,768.81,436.7Z" transform="translate(-761.514 -427.827)"/><path d="M770.8,436.7a.273.273,0,1,1-.274-.274A.273.273,0,0,1,770.8,436.7Z" transform="translate(-759.003 -427.827)"/><path d="M772.784,436.7a.273.273,0,1,1-.271-.274A.271.271,0,0,1,772.784,436.7Z" transform="translate(-756.492 -427.827)"/><path d="M774.773,436.7a.273.273,0,1,1-.274-.274A.273.273,0,0,1,774.773,436.7Z" transform="translate(-753.981 -427.827)"/><path d="M776.761,436.7a.273.273,0,1,1-.271-.274A.271.271,0,0,1,776.761,436.7Z" transform="translate(-751.47 -427.827)"/><path d="M778.75,436.7a.273.273,0,1,1-.274-.274A.273.273,0,0,1,778.75,436.7Z" transform="translate(-748.958 -427.827)"/><path d="M765.825,440.567a.273.273,0,1,1-.274-.272A.273.273,0,0,1,765.825,440.567Z" transform="translate(-765.28 -422.944)"/><path d="M767.813,440.567a.273.273,0,1,1-.271-.272A.273.273,0,0,1,767.813,440.567Z" transform="translate(-762.77 -422.944)"/><path d="M769.8,440.567a.273.273,0,1,1-.274-.272A.273.273,0,0,1,769.8,440.567Z" transform="translate(-760.258 -422.944)"/><path d="M771.79,440.567a.273.273,0,1,1-.271-.272A.273.273,0,0,1,771.79,440.567Z" transform="translate(-757.747 -422.944)"/><path d="M773.779,440.567a.273.273,0,1,1-.274-.272A.273.273,0,0,1,773.779,440.567Z" transform="translate(-755.236 -422.944)"/><path d="M775.767,440.567a.273.273,0,1,1-.272-.272A.273.273,0,0,1,775.767,440.567Z" transform="translate(-752.725 -422.944)"/><path d="M777.756,440.567a.273.273,0,1,1-.274-.272A.273.273,0,0,1,777.756,440.567Z" transform="translate(-750.214 -422.944)"/><path d="M779.744,440.567a.273.273,0,1,1-.271-.272A.273.273,0,0,1,779.744,440.567Z" transform="translate(-747.703 -422.944)"/><circle cx="0.273" cy="0.273" r="0.273" transform="translate(2.249 14.385)"/><path d="M768.81,439.255a.274.274,0,1,1-.274-.271A.273.273,0,0,1,768.81,439.255Z" transform="translate(-761.514 -424.599)"/><path d="M770.8,439.255a.273.273,0,1,1-.274-.271A.273.273,0,0,1,770.8,439.255Z" transform="translate(-759.003 -424.599)"/><path d="M772.784,439.255a.273.273,0,1,1-.271-.271A.271.271,0,0,1,772.784,439.255Z" transform="translate(-756.492 -424.599)"/><path d="M774.773,439.255a.273.273,0,1,1-.274-.271A.273.273,0,0,1,774.773,439.255Z" transform="translate(-753.981 -424.599)"/><path d="M776.761,439.255a.273.273,0,1,1-.271-.271A.271.271,0,0,1,776.761,439.255Z" transform="translate(-751.47 -424.599)"/><path d="M778.75,439.255a.273.273,0,1,1-.274-.271A.273.273,0,0,1,778.75,439.255Z" transform="translate(-748.958 -424.599)"/><path d="M780.738,439.255a.273.273,0,1,1-.271-.271A.273.273,0,0,1,780.738,439.255Z" transform="translate(-746.448 -424.599)"/><path d="M765.825,443.122a.273.273,0,1,1-.274-.272A.273.273,0,0,1,765.825,443.122Z" transform="translate(-765.28 -419.716)"/><circle cx="0.273" cy="0.273" r="0.273" transform="translate(4.499 23.134)"/><circle cx="0.273" cy="0.273" r="0.273" transform="translate(8.999 23.134)"/><circle cx="0.273" cy="0.273" r="0.273" transform="translate(13.498 23.134)"/><circle cx="0.273" cy="0.273" r="0.273" transform="translate(17.998 23.134)"/><path d="M775.767,443.122a.273.273,0,1,1-.272-.272A.273.273,0,0,1,775.767,443.122Z" transform="translate(-752.725 -419.716)"/><circle cx="0.273" cy="0.273" r="0.273" transform="translate(26.997 23.134)"/><circle cx="0.273" cy="0.273" r="0.273" transform="translate(31.496 23.134)"/><circle cx="0.273" cy="0.273" r="0.273" transform="translate(2.249 20.168)"/><path d="M768.81,441.811a.274.274,0,1,1-.274-.271A.273.273,0,0,1,768.81,441.811Z" transform="translate(-761.514 -421.372)"/><path d="M770.8,441.811a.273.273,0,1,1-.274-.271A.273.273,0,0,1,770.8,441.811Z" transform="translate(-759.003 -421.372)"/><path d="M772.784,441.811a.273.273,0,1,1-.271-.271A.271.271,0,0,1,772.784,441.811Z" transform="translate(-756.492 -421.372)"/><path d="M774.773,441.811a.273.273,0,1,1-.274-.271A.273.273,0,0,1,774.773,441.811Z" transform="translate(-753.981 -421.372)"/><path d="M776.761,441.811a.273.273,0,1,1-.271-.271A.271.271,0,0,1,776.761,441.811Z" transform="translate(-751.47 -421.372)"/><path d="M778.75,441.811a.273.273,0,1,1-.274-.271A.273.273,0,0,1,778.75,441.811Z" transform="translate(-748.958 -421.372)"/><path d="M780.738,441.811a.273.273,0,1,1-.271-.271A.273.273,0,0,1,780.738,441.811Z" transform="translate(-746.448 -421.372)"/><circle cx="0.273" cy="0.273" r="0.273" transform="translate(2.249 25.951)"/><path d="M768.81,444.367a.274.274,0,1,1-.274-.271A.273.273,0,0,1,768.81,444.367Z" transform="translate(-761.514 -418.144)"/><path d="M770.8,444.367a.273.273,0,1,1-.274-.271A.273.273,0,0,1,770.8,444.367Z" transform="translate(-759.003 -418.144)"/><path d="M772.784,444.367a.273.273,0,1,1-.271-.271A.271.271,0,0,1,772.784,444.367Z" transform="translate(-756.492 -418.144)"/><path d="M774.773,444.367a.273.273,0,1,1-.274-.271A.273.273,0,0,1,774.773,444.367Z" transform="translate(-753.981 -418.144)"/><path d="M776.761,444.367a.273.273,0,1,1-.271-.271A.271.271,0,0,1,776.761,444.367Z" transform="translate(-751.47 -418.144)"/><path d="M778.75,444.367a.273.273,0,1,1-.274-.271A.273.273,0,0,1,778.75,444.367Z" transform="translate(-748.958 -418.144)"/><path d="M780.372,444.1a.735.735,0,0,1-.147.084A.262.262,0,0,1,780.372,444.1Z" transform="translate(-746.408 -418.142)"/></g></g><g transform="translate(9.282)"><path class="m" d="M773.042,435.232a2.188,2.188,0,1,1-2.188-2.186A2.188,2.188,0,0,1,773.042,435.232Z" transform="translate(-768.666 -418.329)"/><path class="m" d="M779.488,435.232a2.187,2.187,0,1,1-2.186-2.186A2.186,2.186,0,0,1,779.488,435.232Z" transform="translate(-760.523 -418.329)"/><circle class="n" cx="1.482" cy="1.482" r="1.482" transform="translate(0.706 15.422)"/><circle class="n" cx="1.482" cy="1.482" r="1.482" transform="translate(15.296 15.422)"/><path class="e" d="M784.689,443.766a.834.834,0,0,1-.835-.835,41.718,41.718,0,0,0-1.247-7.863c-.842-3.129-2.392-6.856-5.017-6.856-4.845,0-6.657,12.224-6.657,14.719a.835.835,0,0,1-1.67,0c0-.163,1.014-16.389,8.327-16.389,7.092,0,7.933,16.227,7.933,16.389A.836.836,0,0,1,784.689,443.766Z" transform="translate(-767.911 -426.542)"/></g></g></g></g></g><g transform="translate(471.464 714.119)"><path class="b" d="M552.385,800.067,884.5,801.5c80.725-63.387,89.061-157.3,31.473-214.223-34.856-34.433-79.114-27.486-121.256-32.962-.041,0-.081-.02-.122-.02-14.679-1.912-29.075-5.336-42.746-12.545-43.394-22.893-67.857-76.9-104.362-122.322q-6.826-8.55-14.3-16.573c-30.023-32.055-89.774-33.1-121.027,11.968C432.75,529.329,469.126,699.764,552.385,800.067Z" transform="translate(-467.995 -379.77)"/><path class="p" d="M502.318,520.452c8.7,136.256,166.057,187.119,264.339,146.305,85.454-35.5,57.486-116.5-14.638-130.056-.041,0-.081-.02-.122-.02-14.679-1.912-29.075-5.336-42.746-12.545-43.394-22.893-67.857-76.9-104.362-122.322C550.4,373.563,495.935,420.681,502.318,520.452Z" transform="translate(-425.298 -362.159)"/></g><g transform="translate(587.757 648.046)"><g transform="translate(48.164 160.709)"><g transform="translate(100.998 127.946)"><path class="q" d="M708.752,696.482c-5.139-1.883-121.211-94.648-123.4-100.984-.842-2.4,11.68-20.089,27.423-41.038,3.4-4.526,6.935-9.176,10.554-13.88,23.458-30.561,49.059-62.444,49.059-62.444l77.827,61.828-51.2,60.742L687.778,614.05s28.554,55.393,30.21,62.6C719.622,683.837,713.891,698.366,708.752,696.482Z" transform="translate(-585.308 -478.136)"/><path class="k" d="M708.751,661.634c-5.139-1.883-121.211-94.648-123.4-100.984-1.014-2.923,17.684-28.437,37.976-54.918l75.681,60.127L687.778,579.2s28.554,55.393,30.21,62.6C719.622,648.989,713.89,663.518,708.751,661.634Z" transform="translate(-585.308 -443.288)"/><g transform="translate(0 76.324)"><path class="f" d="M708.752,653.888C703.613,652,587.541,559.24,585.348,552.9c-.842-2.4,11.68-20.089,27.423-41.038l75.007,59.591s28.554,55.393,30.21,62.6C719.622,641.243,713.891,655.773,708.752,653.888Z" transform="translate(-585.308 -511.866)"/><g transform="translate(7.714 26.335)"><path class="r" d="M706.493,624.067c-19.075-16.027-97.526-78.872-117.6-93.265-.163-.118-.249-.011-.1.122,18.559,16.3,97.517,78.505,117.443,93.462C706.658,624.7,706.9,624.406,706.493,624.067Z" transform="translate(-588.717 -514.354)"/><path class="r" d="M657.807,564.027a20.014,20.014,0,0,0-15.437-4.55c-4.528.708-9.565,2.77-12.651,6.913-.088.12.122.294.235.188,7.2-6.725,19.467-7.879,27.658-2.306A.156.156,0,0,0,657.807,564.027Z" transform="translate(-536.967 -478.316)"/><path class="r" d="M649.478,546.747c-7.7-6.333-18.928-10.8-28.857-8.3-.385.1-.242.641.086.706a137.838,137.838,0,0,1,28.138,8.657A.627.627,0,0,0,649.478,546.747Z" transform="translate(-548.721 -505.525)"/><path class="r" d="M651.307,549.906c-7.7-6.334-18.928-10.8-28.857-8.3-.385.1-.242.643.086.708a137.746,137.746,0,0,1,28.14,8.655A.627.627,0,0,0,651.307,549.906Z" transform="translate(-546.411 -501.536)"/><path class="r" d="M653.136,553.065c-7.7-6.331-18.928-10.8-28.857-8.3-.385.1-.24.643.086.708a137.757,137.757,0,0,1,28.14,8.655A.627.627,0,0,0,653.136,553.065Z" transform="translate(-544.101 -497.546)"/><path class="r" d="M654.965,556.223c-7.7-6.331-18.926-10.8-28.857-8.3-.385.1-.24.643.086.708a137.855,137.855,0,0,1,28.14,8.655A.627.627,0,0,0,654.965,556.223Z" transform="translate(-541.792 -493.557)"/><path class="s" d="M605.361,525.431c-8.759-6.958-19.587,6.641-10.814,13.61C603.3,546,614.134,532.4,605.361,525.431Z" transform="translate(-585.458 -523.504)"/><path class="r" d="M664.988,539.061c-1.331-6.417-8.85-7.193-13.993-5.741A52.312,52.312,0,0,0,628,547.578a.264.264,0,0,0,.066.419,1.215,1.215,0,0,0,.9,1.747c8.61.6,17.74,2.3,26.278.235C660.227,548.775,666.243,545.132,664.988,539.061ZM642.2,547.976c-4.24-.19-8.447-.586-12.694-.62a156.245,156.245,0,0,1,13.611-8.033,56.419,56.419,0,0,1,7.042-2.978c3.749-1.222,16.6-1.622,10.6,7.472C657.453,548.829,647.261,548.2,642.2,547.976Z" transform="translate(-539.206 -511.895)"/><path class="r" d="M620.761,543.013c5.949,6.46,14.486,10.122,21.974,14.412a1.216,1.216,0,0,0,1.718-.953.262.262,0,0,0,.285-.31,52.271,52.271,0,0,0-11.185-24.635c-3.469-4.066-10.149-7.6-14.821-3.007C614.31,532.869,617.287,539.241,620.761,543.013Zm-1.161-8.189c.07-10.893,10.527-3.419,12.964-.319a56.115,56.115,0,0,1,4.2,6.39,156.785,156.785,0,0,1,6.849,14.244c-3.55-2.333-7.266-4.342-10.9-6.542C628.384,545.975,619.561,540.83,619.6,534.824Z" transform="translate(-553.62 -519.907)"/></g></g></g><path class="s" d="M885.179,492.475C879.846,532.911,780.2,649.63,768.686,663.017l-2.623,3.048-82.422-63.342.948-1.222,72.583-95.037-216.5-1.274,82.2-63.917s6.668,3.847,20.53,1.824c47.781-6.994,155.506-22.479,180.908-21.456C857.08,422.99,890.071,455.379,885.179,492.475Z" transform="translate(-540.674 -421.593)"/><path class="r" d="M664.418,443.509c-2.813,2.851-5.062,6.415-7.485,9.6-2.566,3.362-5.173,6.7-7.734,10.063l-.077.1c.455-.987.9-1.978,1.371-2.953,1.618-3.351,2.912-6.811,4.824-10.013a.176.176,0,0,0-.3-.183c-1.964,3.179-4.245,6.2-5.928,9.547-.792,1.577-1.541,3.168-2.24,4.788-.382.887-.774,1.774-1.118,2.677a12.94,12.94,0,0,0-.471,1.294c-1.147,1.561-2.283,3.132-3.385,4.727-2.444,3.541-4.6,7.282-7.073,10.8-.133.188.165.362.3.183,2.5-3.3,5.313-6.381,7.859-9.658,2.589-3.335,5.048-6.766,7.474-10.221,2.367-3.372,4.686-6.777,7.051-10.151,2.38-3.4,5.207-6.752,7.139-10.427C664.69,443.545,664.529,443.4,664.418,443.509Z" transform="translate(-421.854 -393.967)"/></g><g transform="translate(8.885)"><path class="r" d="M574.552,357.72c-17.175,13.52-34.161,101.875-40.812,111.639-4.7,6.9-10.572,13.821-10.307,17.7s16.754,23.028,47.9,29.059,61.876-8.847,65-12.767-5.1-17.349-4.783-29.471,11.092-78.263,4.48-97.99C628.545,353.547,594.223,342.236,574.552,357.72Z" transform="translate(-523.178 -350.57)"/><path class="r" d="M579.569,491.576a57.709,57.709,0,0,1-4.686-25c.177-9.66,1.412-19.327,2.48-28.923q1.69-15.179,3.363-30.362c.977-8.94,2.19-17.964.6-26.884A50.09,50.09,0,0,0,570.3,356.959c-.082-.1-.245.011-.165.113a53.241,53.241,0,0,1,10.241,23.415c1.618,9.56.061,19.317-1.016,28.878q-1.68,14.89-3.308,29.785c-1,9.133-2.127,18.324-2.229,27.516-.1,8.465.749,17.883,5.247,25.171C579.234,492.106,579.7,491.88,579.569,491.576Z" transform="translate(-464.225 -342.55)"/><path class="r" d="M577.374,353.477c-7.954,4.322-11.859,12.873-15.032,21.089-4.313,11.165-8.257,22.479-11.979,33.858-3.842,11.742-7.019,23.682-10.782,35.444s-9.363,21.942-16.222,32.093c-.154.229.133.511.321.292,14.824-17.34,19.394-40.8,26.185-62.048q5.638-17.636,11.875-35.076c3.376-9.4,6.852-20.06,15.758-25.463C577.625,353.59,577.5,353.409,577.374,353.477Z" transform="translate(-523.316 -346.918)"/><path class="r" d="M582.951,352.052c-16.659,6.526-23.248,25.155-28.62,41.07-6.381,18.908-10.972,38.35-16.586,57.488-3.161,10.778-6.015,22.5-13.018,31.46-.215.274.17.625.4.358,5.4-6.4,8.146-14.4,10.7-22.3,3.066-9.47,5.723-19.071,8.366-28.667,5.238-19.01,10.035-38.628,18.238-56.6,4.318-9.461,10.76-18.7,20.582-22.619C583.125,352.188,583.064,352.007,582.951,352.052Z" transform="translate(-521.613 -348.708)"/></g><g transform="translate(69.287 99.207)"><path class="q" d="M555.466,418.149c14.672,21.069,64.981,75.738,99.766,83.664,19.168,4.369,111.791,17.324,124.485,5.777,14.869-13.527,7.972-64.523-3.847-64.989-36.076-1.417-102.839,5.643-119.516,1.96-7.544-1.665-47.53-27.454-90.229-48.084C549.979,388.674,546,404.554,555.466,418.149Z" transform="translate(-549.504 -394.413)"/><path class="f" d="M756.735,439.733l-6.189,76.344s-84.04-1.326-109.41-15.593-66.666-50.648-82.467-75.93-10.517-39.078,20.324-23.529,72.479,40.508,77.935,41.825S756.735,439.733,756.735,439.733Z" transform="translate(-550.009 -394.347)"/><path class="r" d="M639.042,416.923c0-.2-.3-.276-.344-.061-1.041,5.238-1.471,10.631-2.066,15.939-.618,5.49-1.145,10.993-1.638,16.493-.984,10.968-2.141,22.006-2.482,33.014-.016.48.62.471.69.023,1.652-10.809,2.53-21.8,3.553-32.684.509-5.4.993-10.8,1.38-16.208C638.528,427.956,639.114,422.419,639.042,416.923Z" transform="translate(-445.826 -366.228)"/></g><g transform="translate(0 94.543)"><path class="f" d="M519.389,560.242c4.607,1.484,135.638-36.429,135.638-36.429L639.554,478.32s7.639-14.629,4.091-28.7c-4.738-18.8-39.538-49.709-42.271-51.526-10.979-7.277-21.27-7.153-30.364-2.322C533.122,415.9,519.389,560.242,519.389,560.242Z" transform="translate(-519.389 -392.352)"/><path class="r" d="M563.746,402.161c3.374,3.928,7,7.662,10.481,11.509-1.627-2.867-3.238-5.743-4.971-8.549-.034-.057.041-.122.084-.066a64.064,64.064,0,0,1,6.646,10.581,88.059,88.059,0,0,1,7.223,9.221,41.157,41.157,0,0,1,5.951,12.685,34.772,34.772,0,0,1,.4,14.032,89.756,89.756,0,0,1-4.424,15.677c-.242.679-1.2.253-1.016-.412,2.462-8.884,5.252-18.265,3.277-27.527-1.951-9.151-7.691-16.928-13.264-24.212a129.226,129.226,0,0,0-10.66-12.717C563.312,402.222,563.6,401.987,563.746,402.161Z" transform="translate(-463.783 -380.042)"/></g><g transform="translate(49.395 3.197)"><g transform="translate(10.404 56.758)"><path class="q" d="M545.822,417.631c.521,2.378,11.6,17.917,22.438,17.564,3.53-.12,3.729-19.408,3.729-19.408l.342-1.421,4.747-19.885L550.5,377.066S545.617,416.622,545.822,417.631Z" transform="translate(-545.816 -377.066)"/><path class="r" d="M575.378,394.469l-4.75,19.89a41.088,41.088,0,0,1-23.465-23.782c.812-6.856,1.514-12.558,1.6-13.4a.4.4,0,0,0,.023-.113l3.371,2.036Z" transform="translate(-544.115 -377.064)"/></g><path class="q" d="M609.093,400c-2.249,35.811-23.952,38.51-31.674,38.015-7.01-.446-30.822-2.862-32.286-38.716s15.9-46.129,31.984-45.953S611.34,364.188,609.093,400Z" transform="translate(-536.384 -350.263)"/><g transform="translate(40.128 39.102)"><path class="r" d="M573.62,374.815a23.483,23.483,0,0,1-2.338-.826,4,4,0,0,1-2.22-1.3,1.279,1.279,0,0,1,.206-1.546,3.17,3.17,0,0,1,3.193-.319,4.647,4.647,0,0,1,2.675,2.016A1.36,1.36,0,0,1,573.62,374.815Z" transform="translate(-546.406 -367.637)"/><path class="r" d="M561.385,373.078a23.712,23.712,0,0,0,2.471-.188,4.01,4.01,0,0,0,2.485-.67,1.273,1.273,0,0,0,.2-1.545,3.169,3.169,0,0,0-2.994-1.147,4.666,4.666,0,0,0-3.111,1.245A1.363,1.363,0,0,0,561.385,373.078Z" transform="translate(-557.584 -368.938)"/><g transform="translate(0 6.627)"><g transform="translate(2.632 0.687)"><path class="r" d="M564.424,373.757c-.007-.1-.2.1-.21.195-.188,2.437-.815,5.2-3.1,5.761-.072.018-.079.14,0,.138C563.84,379.767,564.636,376.1,564.424,373.757Z" transform="translate(-558.926 -370.936)"/><path class="r" d="M563.724,372.543c-3.874-.724-5.039,7.076-1.451,7.748C565.805,380.952,566.971,373.152,563.724,372.543Z" transform="translate(-560.115 -372.496)"/></g><path class="r" d="M563.6,373.11c-.747.339-1.532,1.021-2.365.978-.964-.048-1.561-.971-2.064-1.851-.052-.091-.131-.032-.147.07-.247,1.493.1,3.111,1.67,3.573,1.43.423,2.677-.744,3.274-2.19C564.081,373.42,563.9,372.975,563.6,373.11Z" transform="translate(-558.952 -372.192)"/></g><g transform="translate(20.942 9.347)"><path class="r" d="M568.75,374.372c.034-.088.17.145.151.242-.455,2.4-.575,5.229,1.484,6.374.063.034.036.156-.043.131C567.738,380.325,567.933,376.574,568.75,374.372Z" transform="translate(-568.207 -372.184)"/><path class="r" d="M571.208,373.4c3.928.317,3.007,8.148-.634,7.856C567,380.97,567.914,373.136,571.208,373.4Z" transform="translate(-568.113 -373.394)"/><path class="r" d="M570.527,373.738c.57.489,1.093,1.315,1.826,1.45.851.158,1.584-.615,2.226-1.364.068-.077.122,0,.113.1-.136,1.5-.815,3.005-2.285,3.123-1.344.109-2.156-1.29-2.338-2.824C570.036,373.939,570.3,373.543,570.527,373.738Z" transform="translate(-565.859 -373.025)"/></g><path class="r" d="M561.2,383.033c.464.674.885,1.559,1.74,1.8a6.492,6.492,0,0,0,2.695-.1.085.085,0,0,1,.079.143,3.291,3.291,0,0,1-3.3.7,2.6,2.6,0,0,1-1.471-2.489C560.935,382.95,561.13,382.934,561.2,383.033Z" transform="translate(-556.437 -351.955)"/><g transform="translate(7.275)"><path class="r" d="M570.973,392.983s0,3.684-.231,5.388c-.023.161-.446.179-1.03.133-.029,0-.045.014-.068-.007a8.18,8.18,0,0,1-7.456-4.109.177.177,0,0,1,.285-.2,12.344,12.344,0,0,0,7.112,3.138c.186-.457-.215-6.309.059-6.293a14.984,14.984,0,0,1,3.752,1.41c.215-7.675-.8-15.319-.469-22.958a.234.234,0,0,1,.459-.048c1.631,7.938,1.575,16.774,1.557,24.7C574.951,395.128,571.616,393.366,570.973,392.983Z" transform="translate(-562.167 -369.263)"/></g></g><g transform="translate(7.256)"><path class="r" d="M545.637,402.957a14.829,14.829,0,0,0,10.646-10.074,38.688,38.688,0,0,0,18.082-9.112c-.391.674-3.215,5.548-4.732,7.985,23.219.609,33.783-15,33.783-15,5.693,8.775,6.15,13.706,6.7,16.238,0,0,3.1-13.663-1.982-24.341-6.214-13.074-18.43-13.461-18.43-13.461a32.265,32.265,0,0,0-32.844,2.883C538.98,370.773,545.637,402.957,545.637,402.957Z" transform="translate(-544.425 -351.983)"/><path class="r" d="M570.322,379.8a42.138,42.138,0,0,1-12.353,1.754c-.034,0-.032-.052,0-.052a35.811,35.811,0,0,0,18.51-6.4,33.963,33.963,0,0,0,6.259-5.7,23.49,23.49,0,0,0,4.79-7.877.177.177,0,0,1,.337.1,27.472,27.472,0,0,1-3.654,8.418,25.05,25.05,0,0,1-6.544,6.329,28.812,28.812,0,0,1-7.347,3.426" transform="translate(-527.352 -340.089)"/></g><g transform="translate(0 41.689)"><path class="q" d="M555.487,380.864s-6.08-12.242-11.52-10.235-2.032,18.937,3.537,22.019a6.068,6.068,0,0,0,8.526-2.016Z" transform="translate(-541.218 -370.407)"/><path class="r" d="M542.972,372.64c-.1-.023-.131.106-.054.154,3.883,2.3,5.485,6.46,6.413,10.667-1-1.715-2.55-2.806-4.82-1.65-.12.059-.043.244.077.238a3.731,3.731,0,0,1,3.869,1.9,18.114,18.114,0,0,1,1.45,3.58c.138.4.837.3.76-.147l-.02-.1C551.545,382.02,548.554,374.023,542.972,372.64Z" transform="translate(-539.126 -367.589)"/></g></g><g transform="translate(26.373 103.664)"><g transform="translate(1.024 0.5)"><path class="q" d="M535.944,422.455c-10.533,59.762-.351,104.529,9.8,110.073,27.332,14.923,92.953-15.349,111.467-21.361,7.485-2.433-26.624-59.663-34.261-56.133-18,8.313-43.21,22.433-44.226,22.327-2.027-.21-4.4-15.462-14.842-59.921C555.435,381.473,540.252,398.017,535.944,422.455Z" transform="translate(-531.497 -396.603)"/><g transform="translate(88.607 22.561)"><path class="q" d="M667.432,414.127c1.874,7.508-17.028,10.556-17.028,10.556s5.087,1.643,7.488,6.182c2.752,5.2-4.193,11.791-4.193,11.791a17.6,17.6,0,0,1,6.861,7.777c2.131,5.241-3.926,12.893-3.926,12.893a15.435,15.435,0,0,1,1.724,10.637c-2.315,9.642-17.091,13.436-25.773,17.593-9.3,4.451-24.692,6.087-31.674,9.23l-30.256-55.416s29.231-30.946,45.912-35.748C625.824,406.961,664.57,402.653,667.432,414.127Z" transform="translate(-570.655 -406.574)"/><g transform="translate(48.059 17.87)"><path class="r" d="M623.376,414.536c-10.52-.459-21.13,1.6-31.346,3.7a.181.181,0,0,0,.077.353c10.135-2.206,21.105-1.756,31.308-3.555A.254.254,0,0,0,623.376,414.536Z" transform="translate(-591.894 -414.471)"/><path class="r" d="M623.387,422.214a27.323,27.323,0,0,0-7.058,1.312q-3.693.954-7.354,2.032-7.331,2.152-14.547,4.67c-.213.075-.151.419.077.353,4.872-1.423,9.766-2.772,14.695-3.987q3.7-.913,7.413-1.765a32.749,32.749,0,0,0,6.92-1.935A.363.363,0,0,0,623.387,422.214Z" transform="translate(-588.859 -404.696)"/><path class="r" d="M623.316,431.684c-2.07-.111-4.34.9-6.291,1.521q-3.32,1.049-6.65,2.064c-4.439,1.351-8.881,2.7-13.366,3.894-.224.061-.149.412.077.353,4.564-1.19,9.142-2.319,13.694-3.553q3.353-.906,6.7-1.851c1.894-.534,4.324-.989,5.917-2.209A.126.126,0,0,0,623.316,431.684Z" transform="translate(-585.604 -392.746)"/></g></g></g><path class="f" d="M621.182,454.829l31.417,67.2s-97.508,28.45-110.739,11.332-12.305-70.959-6.1-108.207,22.965-37.961,30.3-4.288,11.656,54.931,12.977,54.744S621.182,454.829,621.182,454.829Z" transform="translate(-530.607 -396.383)"/><g transform="translate(0 39.892)"><path class="r" d="M565.637,426.254c-.1-.167-.4-.084-.328.124,1.749,5.046,4.1,9.916,6.268,14.8,2.242,5.048,4.566,10.065,6.92,15.063,4.691,9.961,9.271,20.071,14.536,29.744.229.421.774.09.606-.328-4.032-10.164-8.827-20.091-13.443-30-2.29-4.913-4.6-9.823-7-14.683C570.767,436.038,568.477,430.963,565.637,426.254Z" transform="translate(-487.789 -398.667)"/><path class="r" d="M601.509,510.848c-2.677-.077-5.537.9-8.164,1.364-2.815.5-5.639.946-8.474,1.317a160.34,160.34,0,0,1-16.554,1.419c-5.447.143-18.924-.67-23.067-4.428a26.071,26.071,0,0,1-7.049-12.138,177.614,177.614,0,0,1-3.344-19.154,249.013,249.013,0,0,1-1.279-41.031c.154-3.811.389-7.617.667-11.42.281-3.867.738-7.759.869-11.633a.134.134,0,0,0-.263-.029A138.559,138.559,0,0,0,532.27,433.9c-.233-3.928-.7-7.85-.769-11.785a.177.177,0,0,0-.353.009c.068,4.145-.21,8.282-.057,12.43.088,2.335.321,4.646.582,6.954q-.492,7.891-.421,15.808c.134,13.742,1.17,27.957,4.831,41.257,1.609,5.852,4.087,11.45,9.443,14.581,3.109,1.817,8.685,3.043,12.83,3.365a108.1,108.1,0,0,0,28.088-1.781c2.593-.484,5.175-1.027,7.746-1.613,2.408-.548,5.2-.873,7.392-2.032C601.706,511.029,601.631,510.853,601.509,510.848Z" transform="translate(-531.044 -412.744)"/><g transform="translate(38.456)"><path class="r" d="M571.62,422.442l.007.016v0Z" transform="translate(-518.26 -403.367)"/><path class="r" d="M600.02,431.295c-7.173,3.586-14.378,7.2-21.517,10.852-3.528,1.808-7.06,3.607-10.583,5.424-3.385,1.749-9.855,5.241-9.857,5.236-.077-1.616-1.315-6.311-2-9.336-.747-3.3-1.507-6.6-2.351-9.873-.219-.849-.464-1.695-.688-2.543-.154-1.575-.3-3.152-.441-4.729-.233-2.537-.455-5.13-.842-7.646a.07.07,0,0,0-.14,0,35.919,35.919,0,0,0,.043,7.264Q550,420,548.245,414.086c-.038-.134-.229-.07-.2.063,1.283,6.653,2.643,13.3,4.168,19.9.74,3.2,1.561,6.388,2.394,9.565.808,3.075,2.562,10.282,2.842,10.185a105.547,105.547,0,0,0,10.748-4.74q5.505-2.614,10.95-5.352c7.051-3.532,14.158-7.125,20.969-11.106a11.12,11.12,0,0,0,.527,1.016c.181.285.414-.211.33-.516C600.823,432.564,600.174,431.218,600.02,431.295Z" transform="translate(-548.039 -414.012)"/><path class="r" d="M571.624,422.449h0Z" transform="translate(-518.257 -403.358)"/></g></g></g><g transform="translate(178.673 97.088)"><path class="r" d="M598.35,523.521h91.884l40.292-130.045H638.643Z" transform="translate(-598.35 -393.477)"/><path class="o" d="M600.345,523.521h91.884l40.292-130.045H640.637Z" transform="translate(-595.831 -393.477)"/><path class="k" d="M643.965,425.4c-1.3,4.935-6.358,8.938-11.293,8.938s-7.881-4-6.58-8.938,6.358-8.938,11.3-8.938S645.269,420.462,643.965,425.4Z" transform="translate(-563.707 -364.455)"/><g transform="translate(81.624 45.607)"><path class="q" d="M675.349,413.632c4.5,8.246,16.374,18.39,17.591,25.264a8.008,8.008,0,0,1-3.967,8.694s7.1,3.055,7.175,9.477c.039,3.3-5.2,6.268-5.2,6.268s5.58,2.7,5.3,8.413c-.226,4.55-5.444,6.84-5.444,6.84s4.146,5.084,2.428,9.648c-3.482,9.253-42.545,11.441-49.383-2.611-3.188-6.549,6.381-6.564,6.381-6.564s-13.767-3.3-14.423-11.343,11.778-7.311,11.778-7.311-13.314-3.315-13.154-11.721c.167-8.752,12.482-5.89,12.482-5.89s-9.017-5.4-7.42-11.812c2.636-10.579,22.2,1.994,30.665-.525Z" transform="translate(-634.422 -413.632)"/><g transform="translate(11.303 28.331)"><path class="r" d="M681.652,442.974a.1.1,0,0,1,.05.2c-12.674,3.851-27.776,4.2-40.373-.145-.414-.143-.362-.876.125-.808C655.293,444.214,667.734,444.879,681.652,442.974Z" transform="translate(-637.355 -405.867)"/><path class="r" d="M684.3,437.5c.152-.023.188.229.032.276-13.081,3.894-30.1,3.817-44.034-2.9-.477-.229-.674-.914-.1-.692C649.79,437.951,671.773,439.282,684.3,437.5Z" transform="translate(-638.883 -416.06)"/><path class="r" d="M639.735,426.174c13.606,5.924,27.74,6.888,42.4,5.791.19-.014.19.258.034.312-7.026,2.491-16.444,2.215-23.752,1.383a39.125,39.125,0,0,1-18.892-7.008C639.305,426.493,639.443,426.05,639.735,426.174Z" transform="translate(-639.418 -426.152)"/></g></g></g><g transform="translate(2.447 188.554)"><g transform="translate(352.6 171.349)"><path class="q" d="M894.759,551.584c-1.9,5.134-95.039,120.905-101.382,123.078-2.4.835-20.053-11.746-40.95-27.554-4.514-3.412-9.153-6.965-13.844-10.6-30.489-23.556-62.288-49.261-62.288-49.261l62.08-77.625,60.577,51.4,13.307,11.271s55.484-28.375,62.7-30.009C882.146,540.673,896.658,546.452,894.759,551.584Z" transform="translate(-676.296 -509.623)"/><path class="k" d="M860,533.51c-1.9,5.134-95.039,120.905-101.382,123.078-2.928,1-28.378-17.774-54.793-38.153l60.369-75.487L777.5,554.219s55.484-28.375,62.7-30.009C847.386,522.6,861.9,528.378,860,533.51Z" transform="translate(-641.535 -491.549)"/><g transform="translate(76.131 31.463)"><path class="f" d="M852.273,533.51c-1.9,5.134-95.039,120.905-101.382,123.078-2.4.835-20.053-11.746-40.95-27.554l59.833-74.815s55.484-28.375,62.7-30.009C839.66,522.6,854.171,528.378,852.273,533.51Z" transform="translate(-709.941 -523.012)"/><g transform="translate(26.319)"><g transform="translate(0 5.236)"><path class="r" d="M822.494,527.371c-16.091,19.023-79.189,97.271-93.646,117.3-.118.163-.011.247.122.1,16.358-18.507,78.82-97.264,93.84-117.14C823.127,527.205,822.833,526.968,822.494,527.371Z" transform="translate(-712.448 -524.172)"/><path class="r" d="M762.27,525.9a20.007,20.007,0,0,0-4.6,15.421c.695,4.53,2.738,9.574,6.872,12.674.118.088.294-.122.188-.235-6.7-7.218-7.816-19.492-2.215-27.665A.156.156,0,0,0,762.27,525.9Z" transform="translate(-676.216 -525.841)"/><path class="r" d="M744.978,534.808c-6.359,7.68-10.861,18.892-8.391,28.828.1.387.64.244.708-.082a137.9,137.9,0,0,1,8.746-28.113A.626.626,0,0,0,744.978,534.808Z" transform="translate(-703.479 -514.81)"/><path class="r" d="M748.143,532.988c-6.356,7.68-10.861,18.892-8.39,28.83.095.385.64.242.708-.084a137.769,137.769,0,0,1,8.746-28.113A.626.626,0,0,0,748.143,532.988Z" transform="translate(-699.482 -517.107)"/><path class="r" d="M751.308,531.169c-6.356,7.68-10.859,18.892-8.391,28.83.1.385.64.242.708-.084a137.917,137.917,0,0,1,8.746-28.113A.626.626,0,0,0,751.308,531.169Z" transform="translate(-695.485 -519.404)"/><path class="r" d="M754.473,529.35c-6.356,7.68-10.859,18.892-8.39,28.83.1.385.64.242.708-.084a137.846,137.846,0,0,1,8.746-28.111A.627.627,0,0,0,754.473,529.35Z" transform="translate(-691.489 -521.701)"/><path class="s" d="M723.515,572.157c-6.985,8.734,6.578,19.6,13.577,10.857S730.514,563.406,723.515,572.157Z" transform="translate(-721.572 -471.432)"/></g><path class="r" d="M737.3,523.691c-6.422,1.308-7.221,8.825-5.786,13.973A52.322,52.322,0,0,0,745.7,560.7a.264.264,0,0,0,.419-.063,1.217,1.217,0,0,0,1.751-.894c.622-8.608,2.356-17.731.319-26.276C747,528.482,743.379,522.453,737.3,523.691Zm8.843,22.811c-.2,4.24-.615,8.445-.663,12.692a156.518,156.518,0,0,1-7.988-13.636,56.106,56.106,0,0,1-2.958-7.053c-1.208-3.752-1.566-16.6,7.508-10.572C747.047,531.256,746.389,541.447,746.146,546.5Z" transform="translate(-709.78 -523.528)"/><path class="r" d="M741.151,562.869c6.478-5.928,10.167-14.455,14.482-21.929a1.216,1.216,0,0,0-.948-1.72.262.262,0,0,0-.31-.287A52.321,52.321,0,0,0,729.7,550.039c-4.075,3.455-7.632,10.124-3.052,14.812C730.984,569.286,737.367,566.329,741.151,562.869ZM732.957,564c-10.893-.1-3.385-10.535-.278-12.963a56.439,56.439,0,0,1,6.406-4.177,156.124,156.124,0,0,1,14.265-6.8c-2.344,3.541-4.365,7.252-6.578,10.877C744.135,555.255,738.96,564.059,732.957,564Z" transform="translate(-717.874 -504.079)"/></g></g></g><path class="s" d="M992.485,644.932l-64.6,87.163-218-151.268-21.021-14.595s-5.951,4.005-14.912,8.961c-12.445,6.879-30.683,15.591-46.817,17.967-27.063,4.005-72.251,3.575-95.06-26.927-19.211-25.683-8.775-59.19-8.775-59.19l29.715-12.76s70.318-58.59,115.868-60.355c19.347-.769,47.519,13.893,73.608,29.213C768.559,478.436,992.485,644.932,992.485,644.932Z" transform="translate(-520.47 -433.898)"/><path class="r" d="M631.333,517.864s-5.951,4.005-14.912,8.961c-15.84-18.962-49.374-53.4-50.392-54.624Z" transform="translate(-462.94 -385.53)"/><path class="r" d="M572.124,451.924c-4.2,2.919-8.271,6.021-12.416,9.017-4.08,2.946-8.291,5.716-12.169,8.933-3.942,3.272-7.68,6.766-11.4,10.293-1.792,1.7-3.571,3.415-5.3,5.177a48.614,48.614,0,0,0-5.062,5.494c-.131.186.136.407.31.3a57.784,57.784,0,0,0,5.634-4.587c1.969-1.654,3.912-3.335,5.872-5,3.779-3.213,7.633-6.336,11.4-9.558,3.745-3.2,7.218-6.7,10.927-9.945,3.971-3.471,8.157-6.7,12.282-9.986C572.284,452,572.21,451.865,572.124,451.924Z" transform="translate(-513.813 -411.154)"/><path class="r" d="M755.348,525.818c-4.2,4.528-8.076,9.4-11.984,14.172q-5.889,7.192-11.7,14.448c-7.748,9.678-15.561,19.313-23.178,29.1-4.182,5.374-8.311,10.789-12.2,16.383-.172.249.224.532.425.312,8.334-9.167,15.953-18.944,23.685-28.613,7.745-9.689,15.464-19.4,23.062-29.206,4.159-5.365,8.445-10.7,12.269-16.312C755.885,525.872,755.529,525.623,755.348,525.818Z" transform="translate(-298.501 -317.911)"/><path class="r" d="M691.883,560.445c-10.846-8.547-22.094-16.616-33.338-24.633-11.189-7.979-22.37-15.975-33.727-23.714-3.261-2.222-6.551-4.4-9.836-6.58s-6.691-4.193-9.9-6.456c-.186-.131-.353.179-.17.31,2.951,2.113,5.736,4.487,8.635,6.682,2.767,2.1,5.514,4.216,8.3,6.281,5.447,4.032,10.947,7.988,16.439,11.959q16.706,12.077,33.693,23.775c6.435,4.415,12.839,8.845,19.417,13.04C691.788,561.362,692.256,560.74,691.883,560.445Z" transform="translate(-413.943 -351.649)"/><path class="r" d="M765.379,547.194c-10.022-8.307-20.766-15.776-31.269-23.456-10.626-7.768-21.2-15.609-31.867-23.32l-31.749-22.951c-10.26-7.415-20.469-14.953-31.306-21.519-5.928-3.593-12.011-6.924-18.263-9.925-6.071-2.912-12.382-5.879-18.876-7.709a.177.177,0,0,0-.127.326c5.34,2.982,10.95,5.494,16.356,8.372q8.013,4.266,15.781,8.976c10.757,6.524,20.915,13.927,31.12,21.268,21.191,15.24,42.339,30.543,63.682,45.573,11.941,8.409,23.639,17.288,36.044,25.015C765.291,548.085,765.737,547.49,765.379,547.194Z" transform="translate(-417.725 -428.332)"/></g></g><g transform="translate(1289.243 848.614)"><g transform="translate(76.896 71.354)"><path class="f" d="M926.9,471.22c-27.654,37.454-56.49,80.919-63.512,127.888-.084.71,1.054.944,1.22.238a279.327,279.327,0,0,1,12.23-37.605c18.181-5.005,36.026-9.115,45.572-27.16,9.739-18.55,8.5-42.737,6.65-62.944C928.929,470.555,927.461,470.5,926.9,471.22Z" transform="translate(-863.381 -470.741)"/><g transform="translate(13.677 11.798)"><path class="r" d="M869.477,554.8c12.423-27.878,28.371-55.87,48.643-78.8.136-.154.351.07.224.224-13.274,16.326-23.357,34.109-33.206,52.2,9.155-9.3,19.191-17.623,27.864-27.479.17-.192.439.086.278.278-8.612,10.334-18.021,21.567-29.238,29.215q-4.521,8.323-9.123,16.686c.753-.421,1.532-.8,2.306-1.179.136-.068.256.136.12.2-.855.434-1.7.889-2.586,1.265-1.455,2.634-2.9,5.27-4.4,7.9C870.026,555.906,869.214,555.392,869.477,554.8Z" transform="translate(-869.425 -475.955)"/><path class="r" d="M873.615,514.437a163.856,163.856,0,0,0,21.229-14.172c.181-.147.441.1.258.26a112.217,112.217,0,0,1-21.182,14.432C873.576,515.134,873.276,514.629,873.615,514.437Z" transform="translate(-864.322 -445.313)"/></g></g><g transform="translate(71.709)"><path class="f" d="M863.08,631.948c.057.568,1.023.557,1.011-.047.145-15.466.014-31,.247-46.543,3.962-8,12.468-12.423,18.38-18.831a82.219,82.219,0,0,0,11.031-15.36c7.316-13.086,11.275-27.8,12.8-42.667,1.634-16.545-4.646-71.14-11.619-69.244-3.616.982-15.321,28.025-18.424,36.963A257.53,257.53,0,0,0,865.5,521.542C859.844,557.944,860.315,595.318,863.08,631.948Z" transform="translate(-861.089 -439.208)"/><g transform="translate(1.742 9.547)"><path class="r" d="M862,559.895l.07-.061c.849-19.571,5.259-39.334,9.384-58.314,4.446-20.451,9.644-39.705,20.168-57.943.195-.339.7-.041.521.305a215.048,215.048,0,0,0-16.2,44.475c.7-1.1,1.561-2.15,2.295-3.191.287-.41.964-.027.681.4a28.764,28.764,0,0,1-3.29,4.643.3.3,0,0,1-.136.063c-3.623,14.613-6.223,29.566-8.449,44.48.167-.19.328-.394.5-.577.115-.122.306.034.229.177-.276.493-.584.984-.887,1.478-1.12,7.569-2.161,15.125-3.207,22.612,13.479-11.52,24.99-25.1,31.482-41.828.029-.077.156-.045.127.034-6.361,17.356-16.387,32.781-31.822,43.31-.283,2.018-.563,4.037-.851,6.044-.059.416-.724.308-.722-.1,0-1.783.091-3.571.161-5.358A.413.413,0,0,1,862,559.895Z" transform="translate(-861.859 -443.427)"/><path class="r" d="M864.755,508.808c10.3-15.371,19.922-30.3,27.459-47.292.084-.188.409-.052.335.143-6.352,16.883-15.247,33.989-27.278,47.548C865.026,509.483,864.546,509.121,864.755,508.808Z" transform="translate(-858.267 -420.698)"/><path class="r" d="M870.807,472.45c4.268-7.549,8.768-14.9,12.782-22.594.113-.215.409-.025.319.186a117.642,117.642,0,0,1-12.443,22.793C871.182,473.224,870.56,472.886,870.807,472.45Z" transform="translate(-850.631 -435.428)"/><path class="r" d="M870.074,461.239a.067.067,0,0,1,0,.133A.067.067,0,0,1,870.074,461.239Z" transform="translate(-851.564 -420.934)"/></g></g><g transform="translate(20.038 23.385)"><path class="f" d="M881.448,574.167a157.451,157.451,0,0,1-3.614,30.473c.158,1.1.317,2.2.48,3.335a145.364,145.364,0,0,0,5.449-33.967,1.042,1.042,0,0,0,.047-1.052l0-.032a224.964,224.964,0,0,0-3.414-46.025c-4.788-28.425-15.254-55.705-35.078-77.009a1.416,1.416,0,0,0-2.19.45c-8,20.343-5.209,44.613,1.607,64.906a118.712,118.712,0,0,0,15.72,30.826C867.254,555.633,875.925,563.722,881.448,574.167Z" transform="translate(-838.254 -449.542)"/><g transform="translate(8.621 9.667)"><path class="r" d="M842.85,454.015c18.788,30.491,31.862,66.644,33.46,102.663.027.638-1.045.808-1.136.154-.443-3.236-.939-6.442-1.457-9.637-.011-.009-.023,0-.032-.011-7.775-7.445-15.754-15.3-21.32-24.6-.1-.163.138-.355.269-.206,6.761,7.728,13.072,15.645,20.707,22.537-1.346-7.965-2.939-15.8-4.827-23.524-.5-.577-.993-1.168-1.487-1.747-.326-.382.217-.939.557-.557.149.167.3.333.453.5a272.222,272.222,0,0,0-9.823-31.186c-4.784-5.707-10.13-10.637-13.615-17.509a.144.144,0,0,1,.249-.145c2.8,3.93,5.512,7.883,8.689,11.531,1.267,1.453,2.657,2.81,3.969,4.229a240.3,240.3,0,0,0-15.382-32.064A.421.421,0,0,1,842.85,454.015Z" transform="translate(-842.064 -453.814)"/><path class="r" d="M844.34,470.584c6.073,8.171,12.993,15.971,18.639,24.418.161.242-.192.491-.394.3-7.255-6.8-13.391-16.1-18.654-24.481C843.766,470.559,844.164,470.344,844.34,470.584Z" transform="translate(-839.755 -432.768)"/><path class="r" d="M852.892,482.185l.258.258a.2.2,0,0,1-.278.281l-.26-.26C852.432,482.285,852.711,482.006,852.892,482.185Z" transform="translate(-828.817 -418.06)"/></g></g><g transform="translate(0 90.03)"><path class="f" d="M829.406,480.835c1.509,15.688,9.764,34.426,19.827,46.514A49.367,49.367,0,0,0,865.31,539.9c6.963,3.444,14.256,7.413,21.458,10.239a140.915,140.915,0,0,1,7.6,26.986c.233-.785.464-1.6.7-2.39-4.625-39.719-30.326-73.667-63.2-95.46A1.6,1.6,0,0,0,829.406,480.835Z" transform="translate(-829.398 -478.995)"/><g transform="translate(11.287 13.093)"><path class="r" d="M834.467,485.263c-.231-.2.082-.622.335-.434,17.421,12.907,33.12,31.727,41.891,51.628.238.543-.507,1.018-.817.477q-2.291-4.015-4.67-7.84c-.009,0-.014,0-.023,0-7.5-1.412-14.611-6.693-20.182-11.705-.149-.136.072-.358.224-.224a45.95,45.95,0,0,0,9.495,6.668c3.057,1.554,6.352,2.534,9.535,3.779-2.781-4.415-5.679-8.648-8.7-12.753-8.076-2.752-15.765-7.712-22.553-12.678-.213-.156-.025-.507.213-.364a224.488,224.488,0,0,0,20.96,11.205,188.251,188.251,0,0,0-14.8-17.254c-2.55-1.346-5.137-2.7-7.608-4.141-.2-.115-.07-.459.161-.382a27.261,27.261,0,0,1,5.838,2.867C840.8,491.112,837.739,488.152,834.467,485.263Z" transform="translate(-834.386 -484.781)"/><path class="r" d="M834.9,491.074a9.633,9.633,0,0,1,1.265.9c.122.109-.034.262-.158.208a9.37,9.37,0,0,1-1.319-.747C834.465,491.291,834.675,490.927,834.9,491.074Z" transform="translate(-834.124 -476.878)"/></g></g><g transform="translate(26.882 161.39)"><g transform="translate(0 12.649)"><path class="o" d="M931.365,616.252H841.278l7.273-82.038,1.6-18.093H922.5l1.6,18.093Z" transform="translate(-841.278 -516.121)"/><path class="r" d="M920.034,534.214H844.493l1.6-18.093h72.349Z" transform="translate(-837.22 -516.121)"/></g><rect class="o" width="80.968" height="17.905" transform="translate(4.56)"/></g></g></g></svg>